<?xml version="1.0" encoding="UTF-8"?>
<svg width="800" height="600" viewBox="0 0 800 600" xmlns="http://www.w3.org/2000/svg">
  <!-- Background -->
  <rect x="0" y="0" width="800" height="600" fill="#f8f9fa" />
  
  <!-- Decorative elements -->
  <rect x="50" y="50" width="700" height="500" fill="#e9ecef" rx="20" ry="20" />
  <rect x="100" y="100" width="600" height="400" fill="#dee2e6" rx="15" ry="15" />
  
  <!-- Tech repair elements -->
  <circle cx="400" cy="300" r="150" fill="#d4af37" opacity="0.7" />
  
  <!-- Phone outline -->
  <rect x="350" y="200" width="100" height="200" fill="#212529" rx="10" ry="10" />
  <rect x="360" y="210" width="80" height="160" fill="#f8f9fa" rx="5" ry="5" />
  <circle cx="400" cy="380" r="10" fill="#e9ecef" />
  
  <!-- Tools -->
  <rect x="200" y="250" width="100" height="10" fill="#495057" rx="5" ry="5" transform="rotate(45, 250, 255)" />
  <rect x="200" y="250" width="100" height="10" fill="#495057" rx="5" ry="5" transform="rotate(-45, 250, 255)" />
  
  <circle cx="500" cy="250" r="30" fill="#495057" />
  <circle cx="500" cy="250" r="20" fill="#f8f9fa" />
  <circle cx="500" cy="250" r="10" fill="#495057" />
  
  <!-- Text placeholder -->
  <text x="400" y="500" font-family="Arial" font-size="24" text-anchor="middle" fill="#212529">Tech Device Repair</text>
</svg>
