<?xml version="1.0" encoding="UTF-8" standalone="no"?>
<!DOCTYPE svg PUBLIC "-//W3C//DTD SVG 1.1//EN" "http://www.w3.org/Graphics/SVG/1.1/DTD/svg11.dtd">
<svg xmlns="http://www.w3.org/2000/svg" version="1.1" viewBox="139.50 0.00 894.00 894.00">
<g stroke-width="2.00" fill="none" stroke-linecap="butt">
<path stroke="#D4AF37" vector-effect="non-scaling-stroke" d="
  M 321.40 258.71
  L 321.65 257.62
  A 0.39 0.14 -64.3 0 0 321.66 257.53
  Q 321.54 251.57 322.01 245.54
  C 322.46 239.73 321.94 234.46 322.10 229.33
  Q 322.21 226.07 325.68 226.14
  C 335.11 226.32 342.92 225.83 353.43 226.04
  C 371.20 226.40 388.98 225.17 408.50 225.00
  Q 435.85 224.75 567.75 225.04
  Q 589.99 225.09 603.32 226.48
  Q 621.28 228.35 629.43 230.13
  Q 645.47 233.63 659.96 241.05
  Q 675.97 249.24 691.88 260.58
  C 696.71 264.02 700.18 267.66 704.78 271.63
  C 711.09 277.07 717.70 285.85 722.58 291.43
  Q 725.39 294.63 732.51 305.72
  Q 735.42 310.25 738.75 317.10
  Q 742.95 325.73 744.19 328.80
  Q 752.58 349.50 756.13 371.29
  C 756.88 375.90 758.39 384.61 758.87 390.75
  Q 760.61 412.82 756.54 434.51
  C 755.04 442.50 753.19 452.59 750.58 461.33
  C 744.34 482.20 734.53 502.91 721.46 520.82
  Q 712.71 532.82 709.20 536.96
  Q 699.53 548.39 688.29 558.67
  C 681.01 565.31 673.02 570.11 665.66 576.59
  C 662.56 579.32 661.19 581.85 659.96 585.51
  A 3.08 3.07 -45.7 0 0 659.98 587.50
  C 662.64 595.07 667.97 601.22 671.91 608.06
  Q 679.79 621.77 689.27 636.74
  Q 691.37 640.06 694.06 642.89
  A 2.65 2.63 -27.9 0 0 696.56 643.65
  C 699.61 642.96 703.05 641.61 705.62 639.66
  Q 706.42 639.05 719.59 630.82
  Q 738.07 619.27 758.28 600.98
  C 762.61 597.07 766.98 591.66 770.86 587.77
  Q 775.76 582.85 779.97 577.59
  Q 795.23 558.54 802.70 546.00
  C 816.07 523.60 825.86 498.39 832.69 473.03
  Q 838.92 449.89 841.22 424.89
  Q 842.07 415.58 841.94 402.08
  Q 841.73 381.24 841.63 379.25
  Q 840.79 362.60 838.07 345.86
  Q 835.73 331.41 830.84 315.80
  C 823.62 292.71 814.41 270.87 801.04 250.65
  C 797.78 245.72 791.91 238.43 788.50 234.07
  Q 780.08 223.33 767.69 210.94
  Q 758.38 201.64 740.16 188.22
  Q 733.47 183.29 715.92 173.07
  Q 703.43 165.80 691.52 161.36
  Q 674.58 155.03 666.01 152.74
  Q 639.02 145.51 603.89 143.39
  C 592.54 142.70 579.78 143.37 568.33 142.78
  Q 556.78 142.18 541.66 142.17
  Q 483.70 142.13 469.99 142.18
  C 458.45 142.22 448.89 141.18 436.91 141.17
  Q 277.22 141.11 144.53 141.20
  C 137.21 141.20 129.89 141.99 122.50 141.79
  A 1.72 1.72 0.0 0 0 120.75 143.70
  Q 121.06 146.45 121.04 148.00
  Q 120.70 194.57 120.93 215.94
  Q 120.99 221.23 121.26 223.01
  C 121.96 227.58 128.34 225.91 131.51 225.94
  C 161.11 226.25 194.66 225.67 228.41 226.20
  C 232.77 226.27 235.72 225.70 235.82 230.75
  Q 235.85 232.11 235.67 255.18
  A 3.36 3.36 0.0 0 0 237.40 258.15
  Q 239.43 259.28 242.25 259.34
  Q 255.23 259.59 288.50 259.72
  C 299.89 259.76 308.87 259.33 320.42 259.48
  A 0.99 0.99 0.0 0 0 321.40 258.71"
/>
<path stroke="#6b7280" vector-effect="non-scaling-stroke" d="
  M 156.97 290.42
  C 150.67 299.91 151.36 307.32 151.36 320.55
  Q 151.36 416.91 151.40 530.75
  C 151.40 538.47 152.47 546.61 156.59 553.10
  C 161.69 561.12 173.43 565.10 182.52 565.40
  Q 189.79 565.65 200.00 565.64
  Q 265.72 565.57 288.50 565.67
  Q 291.79 565.69 299.20 565.46
  C 311.93 565.06 322.21 558.47 328.26 547.19
  C 330.86 542.35 332.20 533.74 332.19 528.72
  Q 332.02 423.02 332.21 327.50
  Q 332.22 322.12 331.28 311.66
  Q 330.60 304.04 328.47 299.66
  C 324.02 290.51 317.88 284.23 308.00 281.42
  Q 303.12 280.04 292.31 280.10
  Q 260.68 280.28 184.13 280.09
  C 174.27 280.06 162.92 281.43 156.97 290.42"
/>
<path stroke="#6b7280" vector-effect="non-scaling-stroke" d="
  M 596.94 522.64
  A 1.64 1.63 46.5 0 0 596.90 524.37
  Q 605.21 538.44 613.30 549.95
  C 619.60 558.92 624.66 567.41 629.86 575.17
  Q 631.47 577.58 634.21 575.68
  Q 649.62 565.00 662.90 549.93
  C 673.82 537.53 682.08 522.91 689.31 507.81
  Q 693.67 498.71 694.80 493.64
  C 695.69 489.67 697.59 485.95 698.37 482.40
  Q 700.95 470.81 702.34 461.68
  Q 703.31 455.29 703.42 451.28
  C 703.66 442.27 704.77 435.72 703.89 426.68
  Q 703.74 425.13 702.79 412.50
  Q 702.11 403.51 698.03 386.63
  C 696.94 382.12 695.49 378.89 693.69 373.81
  Q 686.70 354.08 672.61 335.14
  C 662.45 321.49 650.68 311.77 635.72 302.93
  Q 627.80 298.24 617.70 294.62
  Q 604.81 290.00 598.81 288.48
  Q 581.77 284.15 558.60 281.56
  Q 543.29 279.85 517.83 280.12
  Q 503.09 280.28 380.30 280.13
  C 374.96 280.12 370.20 280.71 369.74 286.75
  Q 368.88 298.09 370.09 308.19
  Q 370.38 310.58 370.38 317.50
  Q 370.35 500.85 370.40 504.75
  Q 370.53 514.12 370.03 521.76
  Q 369.41 531.11 369.41 538.77
  Q 369.37 623.71 369.42 702.67
  C 369.43 708.27 368.83 712.02 373.99 714.00
  Q 378.09 715.57 380.52 715.50
  C 384.02 715.41 387.73 714.63 391.51 714.73
  C 399.84 714.93 408.42 713.82 416.50 713.83
  Q 431.06 713.86 442.24 713.78
  C 445.86 713.76 451.05 712.68 451.47 708.93
  Q 451.93 704.87 451.92 701.25
  Q 451.84 673.96 451.99 642.60
  C 452.02 636.09 452.95 629.54 452.94 623.06
  Q 452.89 576.32 452.96 561.82
  C 453.01 552.37 453.81 543.47 453.81 533.41
  Q 453.84 438.53 453.81 382.67
  C 453.80 371.46 453.35 361.69 453.74 351.03
  C 453.87 347.59 456.87 347.04 459.73 346.93
  C 467.67 346.60 484.73 347.06 496.92 346.03
  C 510.25 344.90 521.08 346.01 536.70 347.36
  C 560.31 349.41 586.86 358.99 602.95 377.31
  Q 629.11 407.09 627.55 447.61
  C 627.15 457.83 626.00 467.82 622.86 477.21
  C 619.84 486.25 617.70 492.76 613.46 499.46
  C 610.12 504.74 607.84 508.83 604.12 513.52
  Q 597.24 522.19 596.94 522.64"
/>
<path stroke="#6b7280" vector-effect="non-scaling-stroke" d="
  M 720.82 684.59
  Q 726.56 693.48 739.87 714.61
  C 742.78 719.23 745.36 720.55 751.13 720.55
  Q 942.73 720.47 965.01 720.50
  Q 988.25 720.52 994.00 720.74
  Q 997.28 720.86 1000.63 720.06
  A 3.01 3.00 0.5 0 0 1002.85 717.88
  Q 1003.70 714.57 1003.71 710.75
  Q 1003.80 672.44 1003.75 460.50
  C 1003.74 447.51 1003.23 437.79 999.89 426.47
  Q 997.43 418.15 995.71 414.29
  C 987.28 395.40 971.11 378.34 951.17 372.12
  Q 935.99 367.39 918.75 367.39
  Q 884.96 367.40 868.09 367.36
  C 864.35 367.35 865.15 373.89 865.15 376.38
  Q 865.22 404.36 865.15 417.09
  C 865.13 422.16 864.47 425.27 870.28 425.37
  Q 877.35 425.49 899.26 425.39
  Q 912.36 425.33 923.27 430.06
  Q 935.11 435.20 939.52 448.86
  Q 941.23 454.14 941.23 460.50
  Q 941.21 554.31 941.18 554.91
  Q 940.97 559.40 941.77 571.56
  Q 942.15 577.42 942.16 588.25
  Q 942.22 661.10 942.10 673.00
  Q 942.06 676.36 940.77 681.45
  Q 940.17 683.78 937.75 683.57
  Q 934.94 683.32 931.25 683.31
  Q 821.04 683.10 728.18 683.37
  C 725.89 683.37 723.80 682.90 721.37 683.32
  A 0.83 0.83 0.0 0 0 720.82 684.59"
/>
<path stroke="#6b7280" vector-effect="non-scaling-stroke" d="
  M 755.59 809.15
  L 752.51 805.92
  A 1.66 0.81 26.1 0 1 752.37 805.74
  C 740.71 787.27 733.56 775.23 724.21 761.22
  C 711.70 742.47 694.87 714.80 678.85 690.45
  C 670.21 677.32 661.19 662.29 651.73 648.38
  Q 646.80 641.14 642.36 634.13
  C 627.67 610.96 620.45 599.50 607.28 579.77
  Q 600.14 569.06 592.81 556.93
  Q 589.51 551.46 582.96 542.03
  C 581.77 540.31 580.07 538.91 578.00 538.99
  C 568.00 539.36 557.75 538.81 548.40 539.47
  C 535.64 540.36 520.59 540.40 511.68 539.93
  A 1.28 1.28 0.0 0 0 510.45 541.75
  C 513.42 548.07 517.75 554.39 520.98 560.00
  C 531.32 577.97 543.16 596.28 553.30 613.03
  Q 561.42 626.46 574.86 648.70
  Q 576.48 651.37 579.37 656.08
  Q 598.22 686.78 607.80 702.75
  C 613.72 712.60 620.72 722.79 626.80 732.99
  Q 642.25 758.97 646.48 765.54
  Q 659.60 785.93 671.00 805.38
  C 673.54 809.71 675.51 811.40 680.52 811.42
  Q 728.88 811.62 748.07 811.44
  Q 752.11 811.41 755.19 810.58
  A 0.86 0.86 0.0 0 0 755.59 809.15"
/>
<path stroke="#D4AF37" vector-effect="non-scaling-stroke" d="
  M 322.73 735.14
  Q 322.08 732.54 322.08 729.57
  Q 322.01 655.39 322.09 601.75
  Q 322.09 596.06 321.83 592.75
  Q 321.62 590.20 320.91 588.78
  A 2.43 2.43 0.0 0 0 317.87 587.61
  C 313.31 589.36 310.35 590.15 304.98 590.15
  Q 263.34 590.13 243.53 589.94
  Q 240.17 589.91 237.73 590.45
  A 1.70 1.69 -0.6 0 0 236.44 591.76
  Q 236.16 593.13 235.86 597.50
  Q 235.64 600.63 235.62 620.83
  Q 235.50 771.46 235.66 805.88
  Q 235.67 806.41 235.36 807.82
  Q 235.07 809.16 235.29 809.70
  A 1.15 1.13 85.5 0 0 236.05 810.36
  Q 240.61 811.56 246.25 811.56
  Q 275.43 811.61 434.68 811.60
  C 439.21 811.60 443.61 811.28 447.89 810.64
  Q 450.68 810.22 450.64 808.14
  C 450.54 802.57 451.11 798.23 451.15 792.63
  Q 451.35 765.32 450.80 739.23
  A 1.39 1.38 19.1 0 0 450.28 738.17
  Q 449.26 737.37 447.19 737.34
  Q 434.59 737.15 430.25 737.17
  Q 379.20 737.36 328.00 736.98
  Q 323.94 736.95 323.20 736.08
  A 2.21 2.17 -72.1 0 1 322.73 735.14"
/>
<path stroke="#6b7280" vector-effect="non-scaling-stroke" d="
  M 762.44 750.48
  A 0.57 0.57 0.0 0 0 762.26 751.36
  Q 764.65 754.23 766.19 756.55
  C 773.23 767.10 787.37 790.46 798.99 806.98
  C 801.66 810.77 803.59 811.40 808.26 811.42
  Q 897.36 811.78 987.72 810.73
  Q 991.32 810.69 992.79 810.55
  C 997.21 810.15 1001.37 810.25 1005.37 809.10
  C 1020.35 804.79 1031.60 798.51 1039.73 785.10
  Q 1048.32 770.93 1049.69 751.51
  Q 1049.84 749.40 1047.50 749.32
  Q 1041.28 749.09 1036.28 749.18
  Q 1029.86 749.30 768.21 749.20
  Q 765.01 749.20 762.44 750.48"
/>
<path stroke="#6b7280" vector-effect="non-scaling-stroke" d="
  M 308.32 542.73
  Q 311.08 539.21 311.31 530.25
  Q 311.75 513.18 311.76 507.51
  Q 311.98 394.62 311.46 317.25
  C 311.44 313.42 310.39 305.10 306.80 302.69
  Q 302.23 299.64 295.87 299.63
  Q 200.35 299.53 186.75 299.43
  Q 181.75 299.39 177.52 300.30
  C 170.45 301.82 170.76 306.20 170.77 313.07
  Q 170.94 424.84 170.78 534.24
  Q 170.77 538.04 174.01 541.97
  Q 175.70 544.03 179.16 544.72
  Q 186.23 546.12 189.50 546.13
  Q 226.45 546.17 276.23 546.16
  C 286.21 546.15 294.96 545.16 304.24 544.47
  Q 306.54 544.30 307.66 543.41
  A 4.03 3.97 89.6 0 0 308.32 542.73"
/>
<path stroke="#6b7280" vector-effect="non-scaling-stroke" d="
  M 263.48 325.07
  Q 260.53 320.93 254.96 320.71
  Q 244.84 320.31 229.07 320.65
  Q 225.27 320.73 222.36 321.54
  A 3.53 3.51 -85.9 0 0 220.09 323.52
  C 219.03 325.92 217.67 332.10 221.51 332.82
  Q 222.45 332.99 226.49 333.06
  Q 241.25 333.32 250.26 333.16
  Q 252.19 333.12 258.44 332.15
  Q 261.49 331.67 262.40 330.33
  Q 263.90 328.11 263.86 326.20
  A 2.09 2.06 26.7 0 0 263.48 325.07"
/>
</g>
<path fill="#151515" d="
  M 1173.00 0.00
  L 1173.00 894.00
  L 0.00 894.00
  L 0.00 0.00
  L 1173.00 0.00
  Z
  M 321.40 258.71
  L 321.65 257.62
  A 0.39 0.14 -64.3 0 0 321.66 257.53
  Q 321.54 251.57 322.01 245.54
  C 322.46 239.73 321.94 234.46 322.10 229.33
  Q 322.21 226.07 325.68 226.14
  C 335.11 226.32 342.92 225.83 353.43 226.04
  C 371.20 226.40 388.98 225.17 408.50 225.00
  Q 435.85 224.75 567.75 225.04
  Q 589.99 225.09 603.32 226.48
  Q 621.28 228.35 629.43 230.13
  Q 645.47 233.63 659.96 241.05
  Q 675.97 249.24 691.88 260.58
  C 696.71 264.02 700.18 267.66 704.78 271.63
  C 711.09 277.07 717.70 285.85 722.58 291.43
  Q 725.39 294.63 732.51 305.72
  Q 735.42 310.25 738.75 317.10
  Q 742.95 325.73 744.19 328.80
  Q 752.58 349.50 756.13 371.29
  C 756.88 375.90 758.39 384.61 758.87 390.75
  Q 760.61 412.82 756.54 434.51
  C 755.04 442.50 753.19 452.59 750.58 461.33
  C 744.34 482.20 734.53 502.91 721.46 520.82
  Q 712.71 532.82 709.20 536.96
  Q 699.53 548.39 688.29 558.67
  C 681.01 565.31 673.02 570.11 665.66 576.59
  C 662.56 579.32 661.19 581.85 659.96 585.51
  A 3.08 3.07 -45.7 0 0 659.98 587.50
  C 662.64 595.07 667.97 601.22 671.91 608.06
  Q 679.79 621.77 689.27 636.74
  Q 691.37 640.06 694.06 642.89
  A 2.65 2.63 -27.9 0 0 696.56 643.65
  C 699.61 642.96 703.05 641.61 705.62 639.66
  Q 706.42 639.05 719.59 630.82
  Q 738.07 619.27 758.28 600.98
  C 762.61 597.07 766.98 591.66 770.86 587.77
  Q 775.76 582.85 779.97 577.59
  Q 795.23 558.54 802.70 546.00
  C 816.07 523.60 825.86 498.39 832.69 473.03
  Q 838.92 449.89 841.22 424.89
  Q 842.07 415.58 841.94 402.08
  Q 841.73 381.24 841.63 379.25
  Q 840.79 362.60 838.07 345.86
  Q 835.73 331.41 830.84 315.80
  C 823.62 292.71 814.41 270.87 801.04 250.65
  C 797.78 245.72 791.91 238.43 788.50 234.07
  Q 780.08 223.33 767.69 210.94
  Q 758.38 201.64 740.16 188.22
  Q 733.47 183.29 715.92 173.07
  Q 703.43 165.80 691.52 161.36
  Q 674.58 155.03 666.01 152.74
  Q 639.02 145.51 603.89 143.39
  C 592.54 142.70 579.78 143.37 568.33 142.78
  Q 556.78 142.18 541.66 142.17
  Q 483.70 142.13 469.99 142.18
  C 458.45 142.22 448.89 141.18 436.91 141.17
  Q 277.22 141.11 144.53 141.20
  C 137.21 141.20 129.89 141.99 122.50 141.79
  A 1.72 1.72 0.0 0 0 120.75 143.70
  Q 121.06 146.45 121.04 148.00
  Q 120.70 194.57 120.93 215.94
  Q 120.99 221.23 121.26 223.01
  C 121.96 227.58 128.34 225.91 131.51 225.94
  C 161.11 226.25 194.66 225.67 228.41 226.20
  C 232.77 226.27 235.72 225.70 235.82 230.75
  Q 235.85 232.11 235.67 255.18
  A 3.36 3.36 0.0 0 0 237.40 258.15
  Q 239.43 259.28 242.25 259.34
  Q 255.23 259.59 288.50 259.72
  C 299.89 259.76 308.87 259.33 320.42 259.48
  A 0.99 0.99 0.0 0 0 321.40 258.71
  Z
  M 156.97 290.42
  C 150.67 299.91 151.36 307.32 151.36 320.55
  Q 151.36 416.91 151.40 530.75
  C 151.40 538.47 152.47 546.61 156.59 553.10
  C 161.69 561.12 173.43 565.10 182.52 565.40
  Q 189.79 565.65 200.00 565.64
  Q 265.72 565.57 288.50 565.67
  Q 291.79 565.69 299.20 565.46
  C 311.93 565.06 322.21 558.47 328.26 547.19
  C 330.86 542.35 332.20 533.74 332.19 528.72
  Q 332.02 423.02 332.21 327.50
  Q 332.22 322.12 331.28 311.66
  Q 330.60 304.04 328.47 299.66
  C 324.02 290.51 317.88 284.23 308.00 281.42
  Q 303.12 280.04 292.31 280.10
  Q 260.68 280.28 184.13 280.09
  C 174.27 280.06 162.92 281.43 156.97 290.42
  Z
  M 596.94 522.64
  A 1.64 1.63 46.5 0 0 596.90 524.37
  Q 605.21 538.44 613.30 549.95
  C 619.60 558.92 624.66 567.41 629.86 575.17
  Q 631.47 577.58 634.21 575.68
  Q 649.62 565.00 662.90 549.93
  C 673.82 537.53 682.08 522.91 689.31 507.81
  Q 693.67 498.71 694.80 493.64
  C 695.69 489.67 697.59 485.95 698.37 482.40
  Q 700.95 470.81 702.34 461.68
  Q 703.31 455.29 703.42 451.28
  C 703.66 442.27 704.77 435.72 703.89 426.68
  Q 703.74 425.13 702.79 412.50
  Q 702.11 403.51 698.03 386.63
  C 696.94 382.12 695.49 378.89 693.69 373.81
  Q 686.70 354.08 672.61 335.14
  C 662.45 321.49 650.68 311.77 635.72 302.93
  Q 627.80 298.24 617.70 294.62
  Q 604.81 290.00 598.81 288.48
  Q 581.77 284.15 558.60 281.56
  Q 543.29 279.85 517.83 280.12
  Q 503.09 280.28 380.30 280.13
  C 374.96 280.12 370.20 280.71 369.74 286.75
  Q 368.88 298.09 370.09 308.19
  Q 370.38 310.58 370.38 317.50
  Q 370.35 500.85 370.40 504.75
  Q 370.53 514.12 370.03 521.76
  Q 369.41 531.11 369.41 538.77
  Q 369.37 623.71 369.42 702.67
  C 369.43 708.27 368.83 712.02 373.99 714.00
  Q 378.09 715.57 380.52 715.50
  C 384.02 715.41 387.73 714.63 391.51 714.73
  C 399.84 714.93 408.42 713.82 416.50 713.83
  Q 431.06 713.86 442.24 713.78
  C 445.86 713.76 451.05 712.68 451.47 708.93
  Q 451.93 704.87 451.92 701.25
  Q 451.84 673.96 451.99 642.60
  C 452.02 636.09 452.95 629.54 452.94 623.06
  Q 452.89 576.32 452.96 561.82
  C 453.01 552.37 453.81 543.47 453.81 533.41
  Q 453.84 438.53 453.81 382.67
  C 453.80 371.46 453.35 361.69 453.74 351.03
  C 453.87 347.59 456.87 347.04 459.73 346.93
  C 467.67 346.60 484.73 347.06 496.92 346.03
  C 510.25 344.90 521.08 346.01 536.70 347.36
  C 560.31 349.41 586.86 358.99 602.95 377.31
  Q 629.11 407.09 627.55 447.61
  C 627.15 457.83 626.00 467.82 622.86 477.21
  C 619.84 486.25 617.70 492.76 613.46 499.46
  C 610.12 504.74 607.84 508.83 604.12 513.52
  Q 597.24 522.19 596.94 522.64
  Z
  M 720.82 684.59
  Q 726.56 693.48 739.87 714.61
  C 742.78 719.23 745.36 720.55 751.13 720.55
  Q 942.73 720.47 965.01 720.50
  Q 988.25 720.52 994.00 720.74
  Q 997.28 720.86 1000.63 720.06
  A 3.01 3.00 0.5 0 0 1002.85 717.88
  Q 1003.70 714.57 1003.71 710.75
  Q 1003.80 672.44 1003.75 460.50
  C 1003.74 447.51 1003.23 437.79 999.89 426.47
  Q 997.43 418.15 995.71 414.29
  C 987.28 395.40 971.11 378.34 951.17 372.12
  Q 935.99 367.39 918.75 367.39
  Q 884.96 367.40 868.09 367.36
  C 864.35 367.35 865.15 373.89 865.15 376.38
  Q 865.22 404.36 865.15 417.09
  C 865.13 422.16 864.47 425.27 870.28 425.37
  Q 877.35 425.49 899.26 425.39
  Q 912.36 425.33 923.27 430.06
  Q 935.11 435.20 939.52 448.86
  Q 941.23 454.14 941.23 460.50
  Q 941.21 554.31 941.18 554.91
  Q 940.97 559.40 941.77 571.56
  Q 942.15 577.42 942.16 588.25
  Q 942.22 661.10 942.10 673.00
  Q 942.06 676.36 940.77 681.45
  Q 940.17 683.78 937.75 683.57
  Q 934.94 683.32 931.25 683.31
  Q 821.04 683.10 728.18 683.37
  C 725.89 683.37 723.80 682.90 721.37 683.32
  A 0.83 0.83 0.0 0 0 720.82 684.59
  Z
  M 755.59 809.15
  L 752.51 805.92
  A 1.66 0.81 26.1 0 1 752.37 805.74
  C 740.71 787.27 733.56 775.23 724.21 761.22
  C 711.70 742.47 694.87 714.80 678.85 690.45
  C 670.21 677.32 661.19 662.29 651.73 648.38
  Q 646.80 641.14 642.36 634.13
  C 627.67 610.96 620.45 599.50 607.28 579.77
  Q 600.14 569.06 592.81 556.93
  Q 589.51 551.46 582.96 542.03
  C 581.77 540.31 580.07 538.91 578.00 538.99
  C 568.00 539.36 557.75 538.81 548.40 539.47
  C 535.64 540.36 520.59 540.40 511.68 539.93
  A 1.28 1.28 0.0 0 0 510.45 541.75
  C 513.42 548.07 517.75 554.39 520.98 560.00
  C 531.32 577.97 543.16 596.28 553.30 613.03
  Q 561.42 626.46 574.86 648.70
  Q 576.48 651.37 579.37 656.08
  Q 598.22 686.78 607.80 702.75
  C 613.72 712.60 620.72 722.79 626.80 732.99
  Q 642.25 758.97 646.48 765.54
  Q 659.60 785.93 671.00 805.38
  C 673.54 809.71 675.51 811.40 680.52 811.42
  Q 728.88 811.62 748.07 811.44
  Q 752.11 811.41 755.19 810.58
  A 0.86 0.86 0.0 0 0 755.59 809.15
  Z
  M 322.73 735.14
  Q 322.08 732.54 322.08 729.57
  Q 322.01 655.39 322.09 601.75
  Q 322.09 596.06 321.83 592.75
  Q 321.62 590.20 320.91 588.78
  A 2.43 2.43 0.0 0 0 317.87 587.61
  C 313.31 589.36 310.35 590.15 304.98 590.15
  Q 263.34 590.13 243.53 589.94
  Q 240.17 589.91 237.73 590.45
  A 1.70 1.69 -0.6 0 0 236.44 591.76
  Q 236.16 593.13 235.86 597.50
  Q 235.64 600.63 235.62 620.83
  Q 235.50 771.46 235.66 805.88
  Q 235.67 806.41 235.36 807.82
  Q 235.07 809.16 235.29 809.70
  A 1.15 1.13 85.5 0 0 236.05 810.36
  Q 240.61 811.56 246.25 811.56
  Q 275.43 811.61 434.68 811.60
  C 439.21 811.60 443.61 811.28 447.89 810.64
  Q 450.68 810.22 450.64 808.14
  C 450.54 802.57 451.11 798.23 451.15 792.63
  Q 451.35 765.32 450.80 739.23
  A 1.39 1.38 19.1 0 0 450.28 738.17
  Q 449.26 737.37 447.19 737.34
  Q 434.59 737.15 430.25 737.17
  Q 379.20 737.36 328.00 736.98
  Q 323.94 736.95 323.20 736.08
  A 2.21 2.17 -72.1 0 1 322.73 735.14
  Z
  M 762.44 750.48
  A 0.57 0.57 0.0 0 0 762.26 751.36
  Q 764.65 754.23 766.19 756.55
  C 773.23 767.10 787.37 790.46 798.99 806.98
  C 801.66 810.77 803.59 811.40 808.26 811.42
  Q 897.36 811.78 987.72 810.73
  Q 991.32 810.69 992.79 810.55
  C 997.21 810.15 1001.37 810.25 1005.37 809.10
  C 1020.35 804.79 1031.60 798.51 1039.73 785.10
  Q 1048.32 770.93 1049.69 751.51
  Q 1049.84 749.40 1047.50 749.32
  Q 1041.28 749.09 1036.28 749.18
  Q 1029.86 749.30 768.21 749.20
  Q 765.01 749.20 762.44 750.48
  Z"
/>
<path fill="#D4AF37" d="
  M 321.40 258.71
  A 0.99 0.99 0.0 0 1 320.42 259.48
  C 308.87 259.33 299.89 259.76 288.50 259.72
  Q 255.23 259.59 242.25 259.34
  Q 239.43 259.28 237.40 258.15
  A 3.36 3.36 0.0 0 1 235.67 255.18
  Q 235.85 232.11 235.82 230.75
  C 235.72 225.70 232.77 226.27 228.41 226.20
  C 194.66 225.67 161.11 226.25 131.51 225.94
  C 128.34 225.91 121.96 227.58 121.26 223.01
  Q 120.99 221.23 120.93 215.94
  Q 120.70 194.57 121.04 148.00
  Q 121.06 146.45 120.75 143.70
  A 1.72 1.72 0.0 0 1 122.50 141.79
  C 129.89 141.99 137.21 141.20 144.53 141.20
  Q 277.22 141.11 436.91 141.17
  C 448.89 141.18 458.45 142.22 469.99 142.18
  Q 483.70 142.13 541.66 142.17
  Q 556.78 142.18 568.33 142.78
  C 579.78 143.37 592.54 142.70 603.89 143.39
  Q 639.02 145.51 666.01 152.74
  Q 674.58 155.03 691.52 161.36
  Q 703.43 165.80 715.92 173.07
  Q 733.47 183.29 740.16 188.22
  Q 758.38 201.64 767.69 210.94
  Q 780.08 223.33 788.50 234.07
  C 791.91 238.43 797.78 245.72 801.04 250.65
  C 814.41 270.87 823.62 292.71 830.84 315.80
  Q 835.73 331.41 838.07 345.86
  Q 840.79 362.60 841.63 379.25
  Q 841.73 381.24 841.94 402.08
  Q 842.07 415.58 841.22 424.89
  Q 838.92 449.89 832.69 473.03
  C 825.86 498.39 816.07 523.60 802.70 546.00
  Q 795.23 558.54 779.97 577.59
  Q 775.76 582.85 770.86 587.77
  C 766.98 591.66 762.61 597.07 758.28 600.98
  Q 738.07 619.27 719.59 630.82
  Q 706.42 639.05 705.62 639.66
  C 703.05 641.61 699.61 642.96 696.56 643.65
  A 2.65 2.63 -27.9 0 1 694.06 642.89
  Q 691.37 640.06 689.27 636.74
  Q 679.79 621.77 671.91 608.06
  C 667.97 601.22 662.64 595.07 659.98 587.50
  A 3.08 3.07 -45.7 0 1 659.96 585.51
  C 661.19 581.85 662.56 579.32 665.66 576.59
  C 673.02 570.11 681.01 565.31 688.29 558.67
  Q 699.53 548.39 709.20 536.96
  Q 712.71 532.82 721.46 520.82
  C 734.53 502.91 744.34 482.20 750.58 461.33
  C 753.19 452.59 755.04 442.50 756.54 434.51
  Q 760.61 412.82 758.87 390.75
  C 758.39 384.61 756.88 375.90 756.13 371.29
  Q 752.58 349.50 744.19 328.80
  Q 742.95 325.73 738.75 317.10
  Q 735.42 310.25 732.51 305.72
  Q 725.39 294.63 722.58 291.43
  C 717.70 285.85 711.09 277.07 704.78 271.63
  C 700.18 267.66 696.71 264.02 691.88 260.58
  Q 675.97 249.24 659.96 241.05
  Q 645.47 233.63 629.43 230.13
  Q 621.28 228.35 603.32 226.48
  Q 589.99 225.09 567.75 225.04
  Q 435.85 224.75 408.50 225.00
  C 388.98 225.17 371.20 226.40 353.43 226.04
  C 342.92 225.83 335.11 226.32 325.68 226.14
  Q 322.21 226.07 322.10 229.33
  C 321.94 234.46 322.46 239.73 322.01 245.54
  Q 321.54 251.57 321.66 257.53
  A 0.39 0.14 -64.3 0 1 321.65 257.62
  L 321.40 258.71
  Z"
/>
<path fill="#ffffff" d="
  M 156.97 290.42
  C 162.92 281.43 174.27 280.06 184.13 280.09
  Q 260.68 280.28 292.31 280.10
  Q 303.12 280.04 308.00 281.42
  C 317.88 284.23 324.02 290.51 328.47 299.66
  Q 330.60 304.04 331.28 311.66
  Q 332.22 322.12 332.21 327.50
  Q 332.02 423.02 332.19 528.72
  C 332.20 533.74 330.86 542.35 328.26 547.19
  C 322.21 558.47 311.93 565.06 299.20 565.46
  Q 291.79 565.69 288.50 565.67
  Q 265.72 565.57 200.00 565.64
  Q 189.79 565.65 182.52 565.40
  C 173.43 565.10 161.69 561.12 156.59 553.10
  C 152.47 546.61 151.40 538.47 151.40 530.75
  Q 151.36 416.91 151.36 320.55
  C 151.36 307.32 150.67 299.91 156.97 290.42
  Z
  M 308.32 542.73
  Q 311.08 539.21 311.31 530.25
  Q 311.75 513.18 311.76 507.51
  Q 311.98 394.62 311.46 317.25
  C 311.44 313.42 310.39 305.10 306.80 302.69
  Q 302.23 299.64 295.87 299.63
  Q 200.35 299.53 186.75 299.43
  Q 181.75 299.39 177.52 300.30
  C 170.45 301.82 170.76 306.20 170.77 313.07
  Q 170.94 424.84 170.78 534.24
  Q 170.77 538.04 174.01 541.97
  Q 175.70 544.03 179.16 544.72
  Q 186.23 546.12 189.50 546.13
  Q 226.45 546.17 276.23 546.16
  C 286.21 546.15 294.96 545.16 304.24 544.47
  Q 306.54 544.30 307.66 543.41
  A 4.03 3.97 89.6 0 0 308.32 542.73
  Z"
/>
<path fill="#ffffff" d="
  M 596.94 522.64
  Q 597.24 522.19 604.12 513.52
  C 607.84 508.83 610.12 504.74 613.46 499.46
  C 617.70 492.76 619.84 486.25 622.86 477.21
  C 626.00 467.82 627.15 457.83 627.55 447.61
  Q 629.11 407.09 602.95 377.31
  C 586.86 358.99 560.31 349.41 536.70 347.36
  C 521.08 346.01 510.25 344.90 496.92 346.03
  C 484.73 347.06 467.67 346.60 459.73 346.93
  C 456.87 347.04 453.87 347.59 453.74 351.03
  C 453.35 361.69 453.80 371.46 453.81 382.67
  Q 453.84 438.53 453.81 533.41
  C 453.81 543.47 453.01 552.37 452.96 561.82
  Q 452.89 576.32 452.94 623.06
  C 452.95 629.54 452.02 636.09 451.99 642.60
  Q 451.84 673.96 451.92 701.25
  Q 451.93 704.87 451.47 708.93
  C 451.05 712.68 445.86 713.76 442.24 713.78
  Q 431.06 713.86 416.50 713.83
  C 408.42 713.82 399.84 714.93 391.51 714.73
  C 387.73 714.63 384.02 715.41 380.52 715.50
  Q 378.09 715.57 373.99 714.00
  C 368.83 712.02 369.43 708.27 369.42 702.67
  Q 369.37 623.71 369.41 538.77
  Q 369.41 531.11 370.03 521.76
  Q 370.53 514.12 370.40 504.75
  Q 370.35 500.85 370.38 317.50
  Q 370.38 310.58 370.09 308.19
  Q 368.88 298.09 369.74 286.75
  C 370.20 280.71 374.96 280.12 380.30 280.13
  Q 503.09 280.28 517.83 280.12
  Q 543.29 279.85 558.60 281.56
  Q 581.77 284.15 598.81 288.48
  Q 604.81 290.00 617.70 294.62
  Q 627.80 298.24 635.72 302.93
  C 650.68 311.77 662.45 321.49 672.61 335.14
  Q 686.70 354.08 693.69 373.81
  C 695.49 378.89 696.94 382.12 698.03 386.63
  Q 702.11 403.51 702.79 412.50
  Q 703.74 425.13 703.89 426.68
  C 704.77 435.72 703.66 442.27 703.42 451.28
  Q 703.31 455.29 702.34 461.68
  Q 700.95 470.81 698.37 482.40
  C 697.59 485.95 695.69 489.67 694.80 493.64
  Q 693.67 498.71 689.31 507.81
  C 682.08 522.91 673.82 537.53 662.90 549.93
  Q 649.62 565.00 634.21 575.68
  Q 631.47 577.58 629.86 575.17
  C 624.66 567.41 619.60 558.92 613.30 549.95
  Q 605.21 538.44 596.90 524.37
  A 1.64 1.63 46.5 0 1 596.94 522.64
  Z"
/>
<path fill="#151515" d="
  M 307.66 543.41
  Q 306.54 544.30 304.24 544.47
  C 294.96 545.16 286.21 546.15 276.23 546.16
  Q 226.45 546.17 189.50 546.13
  Q 186.23 546.12 179.16 544.72
  Q 175.70 544.03 174.01 541.97
  Q 170.77 538.04 170.78 534.24
  Q 170.94 424.84 170.77 313.07
  C 170.76 306.20 170.45 301.82 177.52 300.30
  Q 181.75 299.39 186.75 299.43
  Q 200.35 299.53 295.87 299.63
  Q 302.23 299.64 306.80 302.69
  C 310.39 305.10 311.44 313.42 311.46 317.25
  Q 311.98 394.62 311.76 507.51
  Q 311.75 513.18 311.31 530.25
  Q 311.08 539.21 308.32 542.73
  A 4.03 3.97 89.6 0 1 307.66 543.41
  Z
  M 263.48 325.07
  Q 260.53 320.93 254.96 320.71
  Q 244.84 320.31 229.07 320.65
  Q 225.27 320.73 222.36 321.54
  A 3.53 3.51 -85.9 0 0 220.09 323.52
  C 219.03 325.92 217.67 332.10 221.51 332.82
  Q 222.45 332.99 226.49 333.06
  Q 241.25 333.32 250.26 333.16
  Q 252.19 333.12 258.44 332.15
  Q 261.49 331.67 262.40 330.33
  Q 263.90 328.11 263.86 326.20
  A 2.09 2.06 26.7 0 0 263.48 325.07
  Z"
/>
<path fill="#ffffff" d="
  M 263.86 326.20
  Q 263.90 328.11 262.40 330.33
  Q 261.49 331.67 258.44 332.15
  Q 252.19 333.12 250.26 333.16
  Q 241.25 333.32 226.49 333.06
  Q 222.45 332.99 221.51 332.82
  C 217.67 332.10 219.03 325.92 220.09 323.52
  A 3.53 3.51 -85.9 0 1 222.36 321.54
  Q 225.27 320.73 229.07 320.65
  Q 244.84 320.31 254.96 320.71
  Q 260.53 320.93 263.48 325.07
  A 2.09 2.06 26.7 0 1 263.86 326.20
  Z"
/>
<path fill="#ffffff" d="
  M 720.82 684.59
  A 0.83 0.83 0.0 0 1 721.37 683.32
  C 723.80 682.90 725.89 683.37 728.18 683.37
  Q 821.04 683.10 931.25 683.31
  Q 934.94 683.32 937.75 683.57
  Q 940.17 683.78 940.77 681.45
  Q 942.06 676.36 942.10 673.00
  Q 942.22 661.10 942.16 588.25
  Q 942.15 577.42 941.77 571.56
  Q 940.97 559.40 941.18 554.91
  Q 941.21 554.31 941.23 460.50
  Q 941.23 454.14 939.52 448.86
  Q 935.11 435.20 923.27 430.06
  Q 912.36 425.33 899.26 425.39
  Q 877.35 425.49 870.28 425.37
  C 864.47 425.27 865.13 422.16 865.15 417.09
  Q 865.22 404.36 865.15 376.38
  C 865.15 373.89 864.35 367.35 868.09 367.36
  Q 884.96 367.40 918.75 367.39
  Q 935.99 367.39 951.17 372.12
  C 971.11 378.34 987.28 395.40 995.71 414.29
  Q 997.43 418.15 999.89 426.47
  C 1003.23 437.79 1003.74 447.51 1003.75 460.50
  Q 1003.80 672.44 1003.71 710.75
  Q 1003.70 714.57 1002.85 717.88
  A 3.01 3.00 0.5 0 1 1000.63 720.06
  Q 997.28 720.86 994.00 720.74
  Q 988.25 720.52 965.01 720.50
  Q 942.73 720.47 751.13 720.55
  C 745.36 720.55 742.78 719.23 739.87 714.61
  Q 726.56 693.48 720.82 684.59
  Z"
/>
<path fill="#ffffff" d="
  M 755.59 809.15
  A 0.86 0.86 0.0 0 1 755.19 810.58
  Q 752.11 811.41 748.07 811.44
  Q 728.88 811.62 680.52 811.42
  C 675.51 811.40 673.54 809.71 671.00 805.38
  Q 659.60 785.93 646.48 765.54
  Q 642.25 758.97 626.80 732.99
  C 620.72 722.79 613.72 712.60 607.80 702.75
  Q 598.22 686.78 579.37 656.08
  Q 576.48 651.37 574.86 648.70
  Q 561.42 626.46 553.30 613.03
  C 543.16 596.28 531.32 577.97 520.98 560.00
  C 517.75 554.39 513.42 548.07 510.45 541.75
  A 1.28 1.28 0.0 0 1 511.68 539.93
  C 520.59 540.40 535.64 540.36 548.40 539.47
  C 557.75 538.81 568.00 539.36 578.00 538.99
  C 580.07 538.91 581.77 540.31 582.96 542.03
  Q 589.51 551.46 592.81 556.93
  Q 600.14 569.06 607.28 579.77
  C 620.45 599.50 627.67 610.96 642.36 634.13
  Q 646.80 641.14 651.73 648.38
  C 661.19 662.29 670.21 677.32 678.85 690.45
  C 694.87 714.80 711.70 742.47 724.21 761.22
  C 733.56 775.23 740.71 787.27 752.37 805.74
  A 1.66 0.81 26.1 0 0 752.51 805.92
  L 755.59 809.15
  Z"
/>
<path fill="#D4AF37" d="
  M 323.20 736.08
  Q 323.94 736.95 328.00 736.98
  Q 379.20 737.36 430.25 737.17
  Q 434.59 737.15 447.19 737.34
  Q 449.26 737.37 450.28 738.17
  A 1.39 1.38 19.1 0 1 450.80 739.23
  Q 451.35 765.32 451.15 792.63
  C 451.11 798.23 450.54 802.57 450.64 808.14
  Q 450.68 810.22 447.89 810.64
  C 443.61 811.28 439.21 811.60 434.68 811.60
  Q 275.43 811.61 246.25 811.56
  Q 240.61 811.56 236.05 810.36
  A 1.15 1.13 85.5 0 1 235.29 809.70
  Q 235.07 809.16 235.36 807.82
  Q 235.67 806.41 235.66 805.88
  Q 235.50 771.46 235.62 620.83
  Q 235.64 600.63 235.86 597.50
  Q 236.16 593.13 236.44 591.76
  A 1.70 1.69 -0.6 0 1 237.73 590.45
  Q 240.17 589.91 243.53 589.94
  Q 263.34 590.13 304.98 590.15
  C 310.35 590.15 313.31 589.36 317.87 587.61
  A 2.43 2.43 0.0 0 1 320.91 588.78
  Q 321.62 590.20 321.83 592.75
  Q 322.09 596.06 322.09 601.75
  Q 322.01 655.39 322.08 729.57
  Q 322.08 732.54 322.73 735.14
  A 2.21 2.17 -72.1 0 0 323.20 736.08
  Z"
/>
<path fill="#ffffff" d="
  M 762.44 750.48
  Q 765.01 749.20 768.21 749.20
  Q 1029.86 749.30 1036.28 749.18
  Q 1041.28 749.09 1047.50 749.32
  Q 1049.84 749.40 1049.69 751.51
  Q 1048.32 770.93 1039.73 785.10
  C 1031.60 798.51 1020.35 804.79 1005.37 809.10
  C 1001.37 810.25 997.21 810.15 992.79 810.55
  Q 991.32 810.69 987.72 810.73
  Q 897.36 811.78 808.26 811.42
  C 803.59 811.40 801.66 810.77 798.99 806.98
  C 787.37 790.46 773.23 767.10 766.19 756.55
  Q 764.65 754.23 762.26 751.36
  A 0.57 0.57 0.0 0 1 762.44 750.48
  Z"
/>
</svg>
