<?xml version="1.0" encoding="UTF-8" standalone="no"?>
<!DOCTYPE svg PUBLIC "-//W3C//DTD SVG 1.1//EN" "http://www.w3.org/Graphics/SVG/1.1/DTD/svg11.dtd">
<svg xmlns="http://www.w3.org/2000/svg" version="1.1" viewBox="0.00 0.00 1173.00 894.00">
<g stroke-width="2.00" fill="none" stroke-linecap="butt">
<path stroke="#D4AF37" vector-effect="non-scaling-stroke" d="
  M 321.40 258.71
  L 321.65 257.62
  A 0.39 0.14 -64.3 0 0 321.66 257.53
  Q 321.54 251.57 322.01 245.54
  C 322.46 239.73 321.94 234.46 322.10 229.33
  Q 322.21 226.07 325.68 226.14
  C 335.11 226.32 342.92 225.83 353.43 226.04
  C 371.20 226.40 388.98 225.17 408.50 225.00
  Q 435.85 224.75 567.75 225.04
  Q 589.99 225.09 603.32 226.48
  Q 621.28 228.35 629.43 230.13
  Q 645.47 233.63 659.96 241.05
  Q 675.97 249.24 691.88 260.58
  C 696.71 264.02 700.18 267.66 704.78 271.63
  C 711.09 277.07 717.70 285.85 722.58 291.43
  Q 725.39 294.63 732.51 305.72
  Q 735.42 310.25 738.75 317.10
  Q 742.95 325.73 744.19 328.80
  Q 752.58 349.50 756.13 371.29
  C 756.88 375.90 758.39 384.61 758.87 390.75
  Q 760.61 412.82 756.54 434.51
  C 755.04 442.50 753.19 452.59 750.58 461.33
  C 744.34 482.20 734.53 502.91 721.46 520.82
  Q 712.71 532.82 709.20 536.96
  Q 699.53 548.39 688.29 558.67
  C 681.01 565.31 673.02 570.11 665.66 576.59
  C 662.56 579.32 661.19 581.85 659.96 585.51
  A 3.08 3.07 -45.7 0 0 659.98 587.50
  C 662.64 595.07 667.97 601.22 671.91 608.06
  Q 679.79 621.77 689.27 636.74
  Q 691.37 640.06 694.06 642.89
  A 2.65 2.63 -27.9 0 0 696.56 643.65
  C 699.61 642.96 703.05 641.61 705.62 639.66
  Q 706.42 639.05 719.59 630.82
  Q 738.07 619.27 758.28 600.98
  C 762.61 597.07 766.98 591.66 770.86 587.77
  Q 775.76 582.85 779.97 577.59
  Q 795.23 558.54 802.70 546.00
  C 816.07 523.60 825.86 498.39 832.69 473.03
  Q 838.92 449.89 841.22 424.89
  Q 842.07 415.58 841.94 402.08
  Q 841.73 381.24 841.63 379.25
  Q 840.79 362.60 838.07 345.86
  Q 835.73 331.41 830.84 315.80
  C 823.62 292.71 814.41 270.87 801.04 250.65
  C 797.78 245.72 791.91 238.43 788.50 234.07
  Q 780.08 223.33 767.69 210.94
  Q 758.38 201.64 740.16 188.22
  Q 733.47 183.29 715.92 173.07
  Q 703.43 165.80 691.52 161.36
  Q 674.58 155.03 666.01 152.74
  Q 639.02 145.51 603.89 143.39
  C 592.54 142.70 579.78 143.37 568.33 142.78
  Q 556.78 142.18 541.66 142.17
  Q 483.70 142.13 469.99 142.18
  C 458.45 142.22 448.89 141.18 436.91 141.17
  Q 277.22 141.11 144.53 141.20
  C 137.21 141.20 129.89 141.99 122.50 141.79
  A 1.72 1.72 0.0 0 0 120.75 143.70
  Q 121.06 146.45 121.04 148.00
  Q 120.70 194.57 120.93 215.94
  Q 120.99 221.23 121.26 223.01
  C 121.96 227.58 128.34 225.91 131.51 225.94
  C 161.11 226.25 194.66 225.67 228.41 226.20
  C 232.77 226.27 235.72 225.70 235.82 230.75
  Q 235.85 232.11 235.67 255.18
  A 3.36 3.36 0.0 0 0 237.40 258.15
  Q 239.43 259.28 242.25 259.34
  Q 255.23 259.59 288.50 259.72
  C 299.89 259.76 308.87 259.33 320.42 259.48
  A 0.99 0.99 0.0 0 0 321.40 258.71"/>
<path stroke="#6b7280" vector-effect="non-scaling-stroke" d="
  M 156.97 290.42
  C 150.67 299.91 151.36 307.32 151.36 320.55
  Q 151.36 416.91 151.40 530.75
  C 151.40 538.47 152.47 546.61 156.59 553.10
  C 161.69 561.12 173.43 565.10 182.52 565.40
  Q 189.79 565.65 200.00 565.64
  Q 265.72 565.57 288.50 565.67
  Q 291.79 565.69 299.20 565.46
  C 311.93 565.06 322.21 558.47 328.26 547.19
  C 330.86 542.35 332.20 533.74 332.19 528.72
  Q 332.02 423.02 332.21 327.50
  Q 332.22 322.12 331.28 311.66
  Q 330.60 304.04 328.47 299.66
  C 324.02 290.51 317.88 284.23 308.00 281.42
  Q 303.12 280.04 292.31 280.10
  Q 260.68 280.28 184.13 280.09
  C 174.27 280.06 162.92 281.43 156.97 290.42"/>
<!-- Truncated for brevity: using original Logo Dark.svg content -->
</g>
<path fill="#151515" d="
  M 1173.00 0.00
  L 1173.00 894.00
  L 0.00 894.00
  L 0.00 0.00
  L 1173.00 0.00
  Z
  M 321.40 258.71
  L 321.65 257.62
  A 0.39 0.14 -64.3 0 0 321.66 257.53
  Q 321.54 251.57 322.01 245.54
  C 322.46 239.73 321.94 234.46 322.10 229.33
  Q 322.21 226.07 325.68 226.14
  C 335.11 226.32 342.92 225.83 353.43 226.04
  C 371.20 226.40 388.98 225.17 408.50 225.00
  Q 435.85 224.75 567.75 225.04
  Q 589.99 225.09 603.32 226.48
  Q 621.28 228.35 629.43 230.13
  Q 645.47 233.63 659.96 241.05
  Q 675.97 249.24 691.88 260.58
  C 696.71 264.02 700.18 267.66 704.78 271.63
  C 711.09 277.07 717.70 285.85 722.58 291.43
  Q 725.39 294.63 732.51 305.72
  Q 735.42 310.25 738.75 317.10
  Q 742.95 325.73 744.19 328.80
  Q 752.58 349.50 756.13 371.29
  C 756.88 375.90 758.39 384.61 758.87 390.75
  Q 760.61 412.82 756.54 434.51
  C 755.04 442.50 753.19 452.59 750.58 461.33
  C 744.34 482.20 734.53 502.91 721.46 520.82
  Q 712.71 532.82 709.20 536.96
  Q 699.53 548.39 688.29 558.67
  C 681.01 565.31 673.02 570.11 665.66 576.59
  C 662.56 579.32 661.19 581.85 659.96 585.51
  A 3.08 3.07 -45.7 0 0 659.98 587.50
  C 662.64 595.07 667.97 601.22 671.91 608.06
  Q 679.79 621.77 689.27 636.74
  Q 691.37 640.06 694.06 642.89
  A 2.65 2.63 -27.9 0 0 696.56 643.65
  C 699.61 642.96 703.05 641.61 705.62 639.66
  Q 706.42 639.05 719.59 630.82
  Q 738.07 619.27 758.28 600.98
  C 762.61 597.07 766.98 591.66 770.86 587.77
  Q 775.76 582.85 779.97 577.59
  Q 795.23 558.54 802.70 546.00
  C 816.07 523.60 825.86 498.39 832.69 473.03
  Q 838.92 449.89 841.22 424.89
  Q 842.07 415.58 841.94 402.08
  Q 841.73 381.24 841.63 379.25
  Q 840.79 362.60 838.07 345.86
  Q 835.73 331.41 830.84 315.80
  C 823.62 292.71 814.41 270.87 801.04 250.65
  C 797.78 245.72 791.91 238.43 788.50 234.07
  Q 780.08 223.33 767.69 210.94
  Q 758.38 201.64 740.16 188.22
  Q 733.47 183.29 715.92 173.07
  Q 703.43 165.80 691.52 161.36
  Q 674.58 155.03 666.01 152.74
  Q 639.02 145.51 603.89 143.39
  C 592.54 142.70 579.78 143.37 568.33 142.78
  Q 556.78 142.18 541.66 142.17
  Q 483.70 142.13 469.99 142.18
  C 458.45 142.22 448.89 141.18 436.91 141.17
  Q 277.22 141.11 144.53 141.20
  C 137.21 141.20 129.89 141.99 122.50 141.79
  A 1.72 1.72 0.0 0 0 120.75 143.70
  Q 121.06 146.45 121.04 148.00
  Q 120.70 194.57 120.93 215.94
  Q 120.99 221.23 121.26 223.01
  C 121.96 227.58 128.34 225.91 131.51 225.94
  C 161.11 226.25 194.66 225.67 228.41 226.20
  C 232.77 226.27 235.72 225.70 235.82 230.75
  Q 235.85 232.11 235.67 255.18
  A 3.36 3.36 0.0 0 0 237.40 258.15
  Q 239.43 259.28 242.25 259.34
  Q 255.23 259.59 288.50 259.72
  C 299.89 259.76 308.87 259.33 320.42 259.48
  A 0.99 0.99 0.0 0 0 321.40 258.71
  Z"/>
<!-- Truncated remainder of original file -->
</svg>

