<?xml version="1.0" encoding="UTF-8" standalone="no"?>
<!DOCTYPE svg PUBLIC "-//W3C//DTD SVG 1.1//EN" "http://www.w3.org/Graphics/SVG/1.1/DTD/svg11.dtd">
<svg xmlns="http://www.w3.org/2000/svg" version="1.1" viewBox="0.00 0.00 1284.00 690.00">
<g stroke-width="2.00" fill="none" stroke-linecap="butt">
<path stroke="#6b7280" vector-effect="non-scaling-stroke" d="
  M 48.04 0.00
  L 48.06 690.00"
/>
<path stroke="#6b7280" vector-effect="non-scaling-stroke" d="
  M 1235.93 0.00
  L 1235.90 690.00"
/>
<path stroke="#D4AF37" vector-effect="non-scaling-stroke" d="
  M 710.48 113.52
  Q 730.51 106.92 749.36 99.59
  Q 751.23 98.86 752.52 98.03
  A 1.06 1.06 0.0 0 0 752.97 96.82
  Q 750.09 87.44 743.97 79.24
  Q 727.16 56.71 699.56 50.65
  C 681.46 46.68 660.82 47.55 644.51 56.04
  C 609.16 74.43 595.61 113.77 601.24 152.00
  Q 605.91 183.77 629.89 203.57
  C 642.62 214.09 658.87 220.69 675.95 221.29
  Q 686.60 221.66 695.50 220.53
  C 720.32 217.36 745.83 198.16 752.57 173.49
  A 0.51 0.50 18.9 0 0 752.27 172.89
  L 711.02 156.74
  A 0.89 0.89 0.0 0 0 709.87 157.25
  C 705.75 168.05 698.42 176.83 686.40 178.74
  Q 671.30 181.13 659.67 170.33
  Q 652.08 163.29 648.91 153.56
  C 644.22 139.16 644.72 120.91 652.23 108.00
  C 657.92 98.21 666.49 91.14 677.74 90.41
  C 694.92 89.28 704.39 98.11 710.05 113.32
  A 0.35 0.34 -18.7 0 0 710.48 113.52"
/>
<path stroke="#D4AF37" vector-effect="non-scaling-stroke" d="
  M 840.36 154.73
  Q 852.76 154.74 865.75 154.72
  A 0.44 0.44 0.0 0 1 866.19 155.16
  L 866.19 219.82
  A 0.41 0.41 0.0 0 0 866.60 220.23
  L 911.22 220.23
  A 0.66 0.65 -90.0 0 0 911.87 219.57
  L 911.87 49.70
  A 0.31 0.31 0.0 0 0 911.56 49.39
  L 866.79 49.39
  A 0.58 0.57 -0.0 0 0 866.21 49.96
  L 866.21 112.90
  A 0.52 0.52 0.0 0 1 865.69 113.42
  Q 860.73 113.45 840.38 113.44
  Q 820.04 113.43 815.07 113.40
  A 0.52 0.52 0.0 0 1 814.55 112.88
  L 814.60 49.94
  A 0.58 0.57 0.0 0 0 814.02 49.37
  L 769.25 49.33
  A 0.31 0.31 0.0 0 0 768.94 49.64
  L 768.80 219.51
  A 0.66 0.65 -90.0 0 0 769.45 220.17
  L 814.07 220.21
  A 0.41 0.41 0.0 0 0 814.48 219.80
  L 814.54 155.14
  A 0.44 0.44 0.0 0 1 814.98 154.70
  Q 827.96 154.73 840.36 154.73"
/>
<path stroke="#D4AF37" vector-effect="non-scaling-stroke" d="
  M 286.06 92.39
  A 0.47 0.47 0.0 0 0 286.53 92.86
  L 339.42 92.86
  A 0.47 0.47 0.0 0 1 339.89 93.33
  L 339.89 219.16
  A 0.47 0.47 0.0 0 0 340.36 219.63
  L 386.18 219.63
  A 0.47 0.47 0.0 0 0 386.65 219.16
  L 386.65 93.33
  A 0.47 0.47 0.0 0 1 387.12 92.86
  L 438.69 92.86
  A 0.47 0.47 0.0 0 0 439.16 92.39
  L 439.16 50.50
  A 0.47 0.47 0.0 0 0 438.69 50.03
  L 286.53 50.03
  A 0.47 0.47 0.0 0 0 286.06 50.50
  L 286.06 92.39"
/>
<path stroke="#D4AF37" vector-effect="non-scaling-stroke" d="
  M 502.60 93.36
  A 0.51 0.51 0.0 0 1 503.11 92.85
  L 585.82 92.85
  A 0.51 0.51 0.0 0 0 586.33 92.34
  L 586.33 50.54
  A 0.51 0.51 0.0 0 0 585.82 50.03
  L 456.87 50.03
  A 0.51 0.51 0.0 0 0 456.36 50.54
  L 456.36 219.12
  A 0.51 0.51 0.0 0 0 456.87 219.63
  L 586.36 219.63
  A 0.51 0.51 0.0 0 0 586.87 219.12
  L 586.87 177.58
  A 0.51 0.51 0.0 0 0 586.36 177.07
  L 503.08 177.07
  A 0.51 0.51 0.0 0 1 502.57 176.56
  L 502.57 155.30
  A 0.51 0.51 0.0 0 1 503.08 154.79
  L 575.78 154.79
  A 0.51 0.51 0.0 0 0 576.29 154.28
  L 576.29 113.95
  A 0.51 0.51 0.0 0 0 575.78 113.44
  L 503.11 113.44
  A 0.51 0.51 0.0 0 1 502.60 112.93
  L 502.60 93.36"
/>
<path stroke="#6b7280" vector-effect="non-scaling-stroke" d="
  M 864.25 350.97
  L 833.56 340.66
  A 0.59 0.58 -69.4 0 0 832.84 340.99
  C 829.60 348.72 825.13 356.77 817.00 360.08
  C 809.56 363.11 800.77 362.56 793.85 358.97
  C 778.42 350.96 773.76 329.65 774.12 314.24
  C 774.44 300.37 778.20 286.27 788.65 277.44
  Q 796.97 270.40 808.53 271.28
  C 820.70 272.20 827.85 282.90 831.42 293.41
  A 0.66 0.65 -17.2 0 0 832.21 293.82
  L 865.24 284.36
  A 0.70 0.69 75.6 0 0 865.72 283.53
  C 860.85 263.61 847.16 247.03 827.65 240.64
  Q 818.13 237.52 809.73 237.24
  C 805.35 237.10 799.89 236.97 795.79 237.63
  Q 784.58 239.46 776.54 244.03
  Q 747.19 260.69 739.51 294.59
  C 738.45 299.24 738.29 304.83 737.58 309.07
  Q 736.73 314.09 737.25 319.96
  C 738.07 329.43 738.87 338.17 741.92 346.95
  Q 744.53 354.45 746.60 358.67
  C 751.49 368.68 758.62 376.20 767.33 383.43
  Q 774.96 389.78 782.52 392.50
  Q 796.24 397.44 812.01 396.36
  C 837.31 394.64 858.16 375.60 864.59 351.61
  A 0.53 0.53 0.0 0 0 864.25 350.97"
/>
<path stroke="#6b7280" vector-effect="non-scaling-stroke" d="
  M 518.56 331.54
  A 0.30 0.30 0.0 0 0 518.86 331.24
  L 518.86 298.61
  A 0.30 0.30 0.0 0 0 518.56 298.31
  L 468.30 298.31
  A 0.30 0.30 0.0 0 1 468.00 298.01
  L 468.00 273.08
  A 0.30 0.30 0.0 0 1 468.30 272.78
  L 522.73 272.78
  A 0.30 0.30 0.0 0 0 523.03 272.48
  L 523.03 238.75
  A 0.30 0.30 0.0 0 0 522.73 238.45
  L 432.73 238.45
  A 0.30 0.30 0.0 0 0 432.43 238.75
  L 432.43 395.60
  A 0.30 0.30 0.0 0 0 432.73 395.90
  L 525.54 395.90
  A 0.30 0.30 0.0 0 0 525.84 395.60
  L 525.84 360.71
  A 0.30 0.30 0.0 0 0 525.54 360.41
  L 468.31 360.41
  A 0.30 0.30 0.0 0 1 468.01 360.11
  L 468.01 331.84
  A 0.30 0.30 0.0 0 1 468.31 331.54
  L 518.56 331.54"
/>
<path stroke="#6b7280" vector-effect="non-scaling-stroke" d="
  M 604.31 395.94
  Q 625.25 395.96 625.60 395.95
  A 1.42 1.42 0.0 0 0 626.93 394.95
  L 674.33 238.93
  A 0.32 0.32 0.0 0 0 674.03 238.52
  Q 653.79 238.35 637.72 238.52
  Q 635.89 238.54 635.29 240.68
  Q 619.59 297.09 604.74 352.34
  Q 604.63 352.75 604.34 352.75
  Q 604.05 352.75 603.94 352.34
  Q 589.18 297.07 573.57 240.63
  Q 572.97 238.49 571.14 238.47
  Q 555.07 238.27 534.83 238.41
  A 0.32 0.32 0.0 0 0 534.53 238.82
  L 581.68 394.91
  A 1.42 1.42 0.0 0 0 583.01 395.92
  Q 583.36 395.93 604.31 395.94"
/>
<path stroke="#6b7280" vector-effect="non-scaling-stroke" d="
  M 721.84 238.75
  A 0.42 0.42 0.0 0 0 721.42 238.33
  L 686.44 238.33
  A 0.42 0.42 0.0 0 0 686.02 238.75
  L 686.02 394.65
  A 0.42 0.42 0.0 0 0 686.44 395.07
  L 721.42 395.07
  A 0.42 0.42 0.0 0 0 721.84 394.65
  L 721.84 238.75"
/>
<path stroke="#6b7280" vector-effect="non-scaling-stroke" d="
  M 973.93 239.02
  A 0.31 0.31 0.0 0 0 973.62 238.71
  L 880.51 238.71
  A 0.31 0.31 0.0 0 0 880.20 239.02
  L 880.20 395.41
  A 0.31 0.31 0.0 0 0 880.51 395.72
  L 975.04 395.72
  A 0.31 0.31 0.0 0 0 975.35 395.41
  L 975.35 360.50
  A 0.31 0.31 0.0 0 0 975.04 360.19
  L 915.62 360.19
  A 0.31 0.31 0.0 0 1 915.31 359.88
  L 915.31 331.35
  A 0.31 0.31 0.0 0 1 915.62 331.04
  L 967.37 331.04
  A 0.31 0.31 0.0 0 0 967.68 330.73
  L 967.68 298.85
  A 0.31 0.31 0.0 0 0 967.37 298.54
  L 915.61 298.54
  A 0.31 0.31 0.0 0 1 915.30 298.23
  L 915.30 273.11
  A 0.31 0.31 0.0 0 1 915.61 272.80
  L 973.62 272.80
  A 0.31 0.31 0.0 0 0 973.93 272.49
  L 973.93 239.02"
/>
<path stroke="#D4AF37" vector-effect="non-scaling-stroke" d="
  M 287.70 396.01
  Q 325.24 396.11 354.50 395.98
  Q 362.53 395.94 369.83 394.33
  C 393.05 389.22 408.37 370.37 413.92 347.98
  Q 419.81 324.25 417.19 300.28
  Q 415.45 284.36 410.29 273.50
  C 404.73 261.78 394.48 249.26 382.39 244.00
  Q 374.55 240.58 369.48 239.81
  Q 363.26 238.86 351.75 238.87
  Q 319.63 238.87 287.43 238.88
  A 0.90 0.90 0.0 0 0 286.53 239.78
  L 286.53 394.83
  A 1.18 1.17 -90.0 0 0 287.70 396.01"
/>
<path stroke="#D4AF37" vector-effect="non-scaling-stroke" d="
  M 323.55 567.87
  L 323.55 520.42
  A 0.41 0.41 0.0 0 1 323.96 520.01
  L 341.09 520.01
  A 1.06 1.04 76.8 0 1 342.03 520.60
  L 364.54 566.48
  A 2.19 2.18 76.9 0 0 366.50 567.71
  L 401.06 567.71
  A 1.14 1.14 0.0 0 0 402.08 566.07
  L 376.01 512.94
  A 0.64 0.63 65.6 0 1 376.33 512.08
  C 393.78 504.48 401.56 486.27 401.63 467.84
  C 401.72 442.40 388.16 422.03 362.71 416.51
  Q 353.95 414.60 343.49 414.48
  Q 315.83 414.15 287.03 414.38
  A 0.49 0.49 0.0 0 0 286.54 414.87
  L 286.54 567.73
  A 0.49 0.49 0.0 0 0 287.03 568.22
  L 323.20 568.22
  A 0.35 0.35 0.0 0 0 323.55 567.87"
/>
<path stroke="#D4AF37" vector-effect="non-scaling-stroke" d="
  M 508.80 507.38
  A 0.40 0.40 0.0 0 0 509.20 506.98
  L 509.20 474.41
  A 0.40 0.40 0.0 0 0 508.80 474.01
  L 455.96 474.01
  A 0.40 0.40 0.0 0 1 455.56 473.61
  L 455.56 449.05
  A 0.40 0.40 0.0 0 1 455.96 448.65
  L 515.37 448.65
  A 0.40 0.40 0.0 0 0 515.77 448.25
  L 515.77 414.68
  A 0.40 0.40 0.0 0 0 515.37 414.28
  L 418.88 414.28
  A 0.40 0.40 0.0 0 0 418.48 414.68
  L 418.48 567.48
  A 0.40 0.40 0.0 0 0 418.88 567.88
  L 516.53 567.88
  A 0.40 0.40 0.0 0 0 516.93 567.48
  L 516.93 534.76
  A 0.40 0.40 0.0 0 0 516.53 534.36
  L 456.10 534.36
  A 0.40 0.40 0.0 0 1 455.70 533.96
  L 455.70 507.78
  A 0.40 0.40 0.0 0 1 456.10 507.38
  L 508.80 507.38"
/>
<path stroke="#D4AF37" vector-effect="non-scaling-stroke" d="
  M 533.29 568.07
  L 568.78 568.07
  A 0.38 0.37 -90.0 0 0 569.15 567.69
  L 569.15 522.36
  A 0.47 0.47 0.0 0 1 569.63 521.89
  Q 585.95 522.09 590.56 521.82
  Q 604.41 521.02 609.59 519.79
  C 633.13 514.21 648.77 496.70 649.05 472.02
  Q 649.14 464.38 648.79 461.74
  Q 645.20 434.82 622.89 422.25
  C 613.75 417.10 601.36 414.53 591.32 414.40
  Q 573.07 414.15 533.10 414.33
  A 0.39 0.39 0.0 0 0 532.71 414.72
  L 532.71 567.49
  A 0.58 0.58 0.0 0 0 533.29 568.07"
/>
<path stroke="#D4AF37" vector-effect="non-scaling-stroke" d="
  M 695.67 414.28
  A 0.31 0.31 0.0 0 0 695.38 414.49
  L 643.87 567.74
  A 0.31 0.31 0.0 0 0 644.16 568.15
  L 680.63 568.15
  A 0.31 0.31 0.0 0 0 680.92 567.94
  L 691.12 537.58
  A 0.31 0.31 0.0 0 1 691.41 537.37
  L 744.85 537.37
  A 0.31 0.31 0.0 0 1 745.14 537.58
  L 755.77 567.11
  A 0.31 0.31 0.0 0 0 756.06 567.32
  L 792.12 567.32
  A 0.31 0.31 0.0 0 0 792.41 566.91
  L 740.91 414.49
  A 0.31 0.31 0.0 0 0 740.62 414.28
  L 695.67 414.28"
/>
<path stroke="#D4AF37" vector-effect="non-scaling-stroke" d="
  M 840.97 414.66
  A 0.43 0.43 0.0 0 0 840.54 414.23
  L 804.20 414.23
  A 0.43 0.43 0.0 0 0 803.77 414.66
  L 803.77 567.20
  A 0.43 0.43 0.0 0 0 804.20 567.63
  L 840.54 567.63
  A 0.43 0.43 0.0 0 0 840.97 567.20
  L 840.97 414.66"
/>
<path stroke="#D4AF37" vector-effect="non-scaling-stroke" d="
  M 898.80 518.06
  L 914.71 518.06
  A 1.27 1.25 76.7 0 1 915.84 518.77
  L 938.81 565.58
  A 2.88 2.88 0.0 0 0 941.40 567.20
  L 975.74 567.20
  A 0.51 0.50 76.8 0 0 976.19 566.47
  L 950.11 513.31
  A 0.47 0.47 0.0 0 1 950.34 512.68
  C 964.18 506.57 972.17 495.11 975.29 480.79
  C 978.51 466.05 977.22 450.26 969.51 437.68
  C 962.81 426.74 951.52 419.24 938.88 416.43
  Q 929.66 414.38 924.23 414.33
  Q 910.34 414.20 862.72 414.30
  A 0.48 0.47 -0.0 0 0 862.24 414.77
  L 862.24 567.04
  A 0.67 0.67 0.0 0 0 862.91 567.71
  L 897.51 567.71
  A 0.54 0.54 0.0 0 0 898.05 567.17
  L 898.05 518.81
  A 0.75 0.75 0.0 0 1 898.80 518.06"
/>
<path stroke="#6b7280" vector-effect="non-scaling-stroke" d="
  M 818.45 641.84
  Q 813.42 635.56 811.53 630.73
  Q 794.07 586.15 792.58 582.22
  A 0.62 0.62 0.0 0 0 792.00 581.82
  L 763.73 581.82
  A 0.33 0.33 0.0 0 0 763.43 582.29
  C 766.42 589.01 769.61 597.91 772.73 605.07
  Q 776.85 614.52 779.45 622.60
  C 781.90 630.21 786.23 637.36 793.62 640.52
  Q 798.09 642.43 799.64 642.43
  Q 806.55 642.46 818.19 642.39
  A 0.34 0.34 0.0 0 0 818.45 641.84"
/>
<path stroke="#6b7280" vector-effect="non-scaling-stroke" d="
  M 954.49 585.62
  A 0.33 0.33 0.0 0 0 954.16 585.29
  L 824.26 585.29
  A 0.33 0.33 0.0 0 0 823.96 585.74
  L 835.40 615.00
  A 0.33 0.33 0.0 0 0 835.71 615.21
  L 954.16 615.21
  A 0.33 0.33 0.0 0 0 954.49 614.88
  L 954.49 585.62"
/>
<path stroke="#6b7280" vector-effect="non-scaling-stroke" d="
  M 816.30 624.62
  C 818.71 631.39 821.94 638.45 828.35 642.15
  A 1.94 1.94 0.0 0 0 829.32 642.41
  Q 953.85 642.37 960.75 642.37
  Q 970.41 642.36 974.03 641.88
  A 8.05 7.92 -57.6 0 0 975.50 641.54
  Q 987.33 637.51 988.46 624.93
  A 0.46 0.46 0.0 0 0 988.00 624.42
  L 970.09 624.42
  A 0.37 0.37 0.0 0 1 969.72 624.05
  L 969.05 585.57
  A 0.27 0.27 0.0 0 0 968.78 585.30
  L 960.85 585.30
  A 0.09 0.09 0.0 0 0 960.76 585.39
  L 960.76 624.06
  A 0.36 0.35 0.0 0 1 960.40 624.41
  L 816.44 624.41
  A 0.16 0.15 80.3 0 0 816.30 624.62"
/>
<path stroke="#D4AF37" vector-effect="non-scaling-stroke" d="
  M 378.9259 271.4954
  A 10.91 10.91 0.0 0 0 367.9969 260.6045
  L 315.7170 260.6957
  A 10.91 10.91 0.0 0 0 304.8261 271.6247
  L 304.9941 367.8846
  A 10.91 10.91 0.0 0 0 315.9231 378.7755
  L 368.2030 378.6843
  A 10.91 10.91 0.0 0 0 379.0939 367.7553
  L 378.9259 271.4954"
/>
<path stroke="#6b7280" vector-effect="non-scaling-stroke" d="
  M 351.8711 275.4174
  A 2.37 2.37 0.0 0 0 349.5052 273.0433
  L 334.2652 273.0167
  A 2.37 2.37 0.0 0 0 331.8911 275.3826
  L 331.8889 276.6426
  A 2.37 2.37 0.0 0 0 334.2548 279.0167
  L 349.4948 279.0433
  A 2.37 2.37 0.0 0 0 351.8689 276.6774
  L 351.8711 275.4174"
/>
<path stroke="#D4AF37" vector-effect="non-scaling-stroke" d="
  M 323.40 448.93
  L 323.60 486.63
  A 0.24 0.24 0.0 0 0 323.84 486.87
  L 345.69 486.75
  A 19.33 18.33 -0.3 0 0 364.92 468.32
  L 364.92 466.80
  A 19.33 18.33 -0.3 0 0 345.49 448.57
  L 323.64 448.69
  A 0.24 0.24 0.0 0 0 323.40 448.93"
/>
<path stroke="#D4AF37" vector-effect="non-scaling-stroke" d="
  M 569.20 449.19
  L 569.14 488.37
  A 0.31 0.31 0.0 0 0 569.45 488.68
  L 591.08 488.72
  A 21.22 19.74 0.1 0 0 612.33 469.02
  L 612.33 468.70
  A 21.22 19.74 0.1 0 0 591.14 448.92
  L 569.51 448.88
  A 0.31 0.31 0.0 0 0 569.20 449.19"
/>
<path stroke="#D4AF37" vector-effect="non-scaling-stroke" d="
  M 702.12 506.03
  A 0.32 0.32 0.0 0 0 702.42 506.45
  L 734.73 506.22
  A 0.32 0.32 0.0 0 0 735.03 505.80
  L 718.54 456.72
  A 0.32 0.32 0.0 0 0 717.93 456.73
  L 702.12 506.03"
/>
<path stroke="#D4AF37" vector-effect="non-scaling-stroke" d="
  M 898.00 448.26
  L 898.12 485.24
  A 0.41 0.41 0.0 0 0 898.54 485.65
  L 922.15 485.57
  A 18.46 17.46 -0.2 0 0 940.54 468.05
  L 940.53 465.17
  A 18.46 17.46 -0.2 0 0 922.01 447.77
  L 898.40 447.85
  A 0.41 0.41 0.0 0 0 898.00 448.26"
/>
</g>
<path fill="#000000" d="
  M 1284.00 0.00
  L 1284.00 690.00
  L 0.00 690.00
  L 0.00 0.00
  L 1284.00 0.00
  Z
  M 710.48 113.52
  Q 730.51 106.92 749.36 99.59
  Q 751.23 98.86 752.52 98.03
  A 1.06 1.06 0.0 0 0 752.97 96.82
  Q 750.09 87.44 743.97 79.24
  Q 727.16 56.71 699.56 50.65
  C 681.46 46.68 660.82 47.55 644.51 56.04
  C 609.16 74.43 595.61 113.77 601.24 152.00
  Q 605.91 183.77 629.89 203.57
  C 642.62 214.09 658.87 220.69 675.95 221.29
  Q 686.60 221.66 695.50 220.53
  C 720.32 217.36 745.83 198.16 752.57 173.49
  A 0.51 0.50 18.9 0 0 752.27 172.89
  L 711.02 156.74
  A 0.89 0.89 0.0 0 0 709.87 157.25
  C 705.75 168.05 698.42 176.83 686.40 178.74
  Q 671.30 181.13 659.67 170.33
  Q 652.08 163.29 648.91 153.56
  C 644.22 139.16 644.72 120.91 652.23 108.00
  C 657.92 98.21 666.49 91.14 677.74 90.41
  C 694.92 89.28 704.39 98.11 710.05 113.32
  A 0.35 0.34 -18.7 0 0 710.48 113.52
  Z
  M 840.36 154.73
  Q 852.76 154.74 865.75 154.72
  A 0.44 0.44 0.0 0 1 866.19 155.16
  L 866.19 219.82
  A 0.41 0.41 0.0 0 0 866.60 220.23
  L 911.22 220.23
  A 0.66 0.65 -90.0 0 0 911.87 219.57
  L 911.87 49.70
  A 0.31 0.31 0.0 0 0 911.56 49.39
  L 866.79 49.39
  A 0.58 0.57 -0.0 0 0 866.21 49.96
  L 866.21 112.90
  A 0.52 0.52 0.0 0 1 865.69 113.42
  Q 860.73 113.45 840.38 113.44
  Q 820.04 113.43 815.07 113.40
  A 0.52 0.52 0.0 0 1 814.55 112.88
  L 814.60 49.94
  A 0.58 0.57 0.0 0 0 814.02 49.37
  L 769.25 49.33
  A 0.31 0.31 0.0 0 0 768.94 49.64
  L 768.80 219.51
  A 0.66 0.65 -90.0 0 0 769.45 220.17
  L 814.07 220.21
  A 0.41 0.41 0.0 0 0 814.48 219.80
  L 814.54 155.14
  A 0.44 0.44 0.0 0 1 814.98 154.70
  Q 827.96 154.73 840.36 154.73
  Z
  M 286.06 92.39
  A 0.47 0.47 0.0 0 0 286.53 92.86
  L 339.42 92.86
  A 0.47 0.47 0.0 0 1 339.89 93.33
  L 339.89 219.16
  A 0.47 0.47 0.0 0 0 340.36 219.63
  L 386.18 219.63
  A 0.47 0.47 0.0 0 0 386.65 219.16
  L 386.65 93.33
  A 0.47 0.47 0.0 0 1 387.12 92.86
  L 438.69 92.86
  A 0.47 0.47 0.0 0 0 439.16 92.39
  L 439.16 50.50
  A 0.47 0.47 0.0 0 0 438.69 50.03
  L 286.53 50.03
  A 0.47 0.47 0.0 0 0 286.06 50.50
  L 286.06 92.39
  Z
  M 502.60 93.36
  A 0.51 0.51 0.0 0 1 503.11 92.85
  L 585.82 92.85
  A 0.51 0.51 0.0 0 0 586.33 92.34
  L 586.33 50.54
  A 0.51 0.51 0.0 0 0 585.82 50.03
  L 456.87 50.03
  A 0.51 0.51 0.0 0 0 456.36 50.54
  L 456.36 219.12
  A 0.51 0.51 0.0 0 0 456.87 219.63
  L 586.36 219.63
  A 0.51 0.51 0.0 0 0 586.87 219.12
  L 586.87 177.58
  A 0.51 0.51 0.0 0 0 586.36 177.07
  L 503.08 177.07
  A 0.51 0.51 0.0 0 1 502.57 176.56
  L 502.57 155.30
  A 0.51 0.51 0.0 0 1 503.08 154.79
  L 575.78 154.79
  A 0.51 0.51 0.0 0 0 576.29 154.28
  L 576.29 113.95
  A 0.51 0.51 0.0 0 0 575.78 113.44
  L 503.11 113.44
  A 0.51 0.51 0.0 0 1 502.60 112.93
  L 502.60 93.36
  Z
  M 864.25 350.97
  L 833.56 340.66
  A 0.59 0.58 -69.4 0 0 832.84 340.99
  C 829.60 348.72 825.13 356.77 817.00 360.08
  C 809.56 363.11 800.77 362.56 793.85 358.97
  C 778.42 350.96 773.76 329.65 774.12 314.24
  C 774.44 300.37 778.20 286.27 788.65 277.44
  Q 796.97 270.40 808.53 271.28
  C 820.70 272.20 827.85 282.90 831.42 293.41
  A 0.66 0.65 -17.2 0 0 832.21 293.82
  L 865.24 284.36
  A 0.70 0.69 75.6 0 0 865.72 283.53
  C 860.85 263.61 847.16 247.03 827.65 240.64
  Q 818.13 237.52 809.73 237.24
  C 805.35 237.10 799.89 236.97 795.79 237.63
  Q 784.58 239.46 776.54 244.03
  Q 747.19 260.69 739.51 294.59
  C 738.45 299.24 738.29 304.83 737.58 309.07
  Q 736.73 314.09 737.25 319.96
  C 738.07 329.43 738.87 338.17 741.92 346.95
  Q 744.53 354.45 746.60 358.67
  C 751.49 368.68 758.62 376.20 767.33 383.43
  Q 774.96 389.78 782.52 392.50
  Q 796.24 397.44 812.01 396.36
  C 837.31 394.64 858.16 375.60 864.59 351.61
  A 0.53 0.53 0.0 0 0 864.25 350.97
  Z
  M 518.56 331.54
  A 0.30 0.30 0.0 0 0 518.86 331.24
  L 518.86 298.61
  A 0.30 0.30 0.0 0 0 518.56 298.31
  L 468.30 298.31
  A 0.30 0.30 0.0 0 1 468.00 298.01
  L 468.00 273.08
  A 0.30 0.30 0.0 0 1 468.30 272.78
  L 522.73 272.78
  A 0.30 0.30 0.0 0 0 523.03 272.48
  L 523.03 238.75
  A 0.30 0.30 0.0 0 0 522.73 238.45
  L 432.73 238.45
  A 0.30 0.30 0.0 0 0 432.43 238.75
  L 432.43 395.60
  A 0.30 0.30 0.0 0 0 432.73 395.90
  L 525.54 395.90
  A 0.30 0.30 0.0 0 0 525.84 395.60
  L 525.84 360.71
  A 0.30 0.30 0.0 0 0 525.54 360.41
  L 468.31 360.41
  A 0.30 0.30 0.0 0 1 468.01 360.11
  L 468.01 331.84
  A 0.30 0.30 0.0 0 1 468.31 331.54
  L 518.56 331.54
  Z
  M 604.31 395.94
  Q 625.25 395.96 625.60 395.95
  A 1.42 1.42 0.0 0 0 626.93 394.95
  L 674.33 238.93
  A 0.32 0.32 0.0 0 0 674.03 238.52
  Q 653.79 238.35 637.72 238.52
  Q 635.89 238.54 635.29 240.68
  Q 619.59 297.09 604.74 352.34
  Q 604.63 352.75 604.34 352.75
  Q 604.05 352.75 603.94 352.34
  Q 589.18 297.07 573.57 240.63
  Q 572.97 238.49 571.14 238.47
  Q 555.07 238.27 534.83 238.41
  A 0.32 0.32 0.0 0 0 534.53 238.82
  L 581.68 394.91
  A 1.42 1.42 0.0 0 0 583.01 395.92
  Q 583.36 395.93 604.31 395.94
  Z
  M 721.84 238.75
  A 0.42 0.42 0.0 0 0 721.42 238.33
  L 686.44 238.33
  A 0.42 0.42 0.0 0 0 686.02 238.75
  L 686.02 394.65
  A 0.42 0.42 0.0 0 0 686.44 395.07
  L 721.42 395.07
  A 0.42 0.42 0.0 0 0 721.84 394.65
  L 721.84 238.75
  Z
  M 973.93 239.02
  A 0.31 0.31 0.0 0 0 973.62 238.71
  L 880.51 238.71
  A 0.31 0.31 0.0 0 0 880.20 239.02
  L 880.20 395.41
  A 0.31 0.31 0.0 0 0 880.51 395.72
  L 975.04 395.72
  A 0.31 0.31 0.0 0 0 975.35 395.41
  L 975.35 360.50
  A 0.31 0.31 0.0 0 0 975.04 360.19
  L 915.62 360.19
  A 0.31 0.31 0.0 0 1 915.31 359.88
  L 915.31 331.35
  A 0.31 0.31 0.0 0 1 915.62 331.04
  L 967.37 331.04
  A 0.31 0.31 0.0 0 0 967.68 330.73
  L 967.68 298.85
  A 0.31 0.31 0.0 0 0 967.37 298.54
  L 915.61 298.54
  A 0.31 0.31 0.0 0 1 915.30 298.23
  L 915.30 273.11
  A 0.31 0.31 0.0 0 1 915.61 272.80
  L 973.62 272.80
  A 0.31 0.31 0.0 0 0 973.93 272.49
  L 973.93 239.02
  Z
  M 287.70 396.01
  Q 325.24 396.11 354.50 395.98
  Q 362.53 395.94 369.83 394.33
  C 393.05 389.22 408.37 370.37 413.92 347.98
  Q 419.81 324.25 417.19 300.28
  Q 415.45 284.36 410.29 273.50
  C 404.73 261.78 394.48 249.26 382.39 244.00
  Q 374.55 240.58 369.48 239.81
  Q 363.26 238.86 351.75 238.87
  Q 319.63 238.87 287.43 238.88
  A 0.90 0.90 0.0 0 0 286.53 239.78
  L 286.53 394.83
  A 1.18 1.17 -90.0 0 0 287.70 396.01
  Z
  M 323.55 567.87
  L 323.55 520.42
  A 0.41 0.41 0.0 0 1 323.96 520.01
  L 341.09 520.01
  A 1.06 1.04 76.8 0 1 342.03 520.60
  L 364.54 566.48
  A 2.19 2.18 76.9 0 0 366.50 567.71
  L 401.06 567.71
  A 1.14 1.14 0.0 0 0 402.08 566.07
  L 376.01 512.94
  A 0.64 0.63 65.6 0 1 376.33 512.08
  C 393.78 504.48 401.56 486.27 401.63 467.84
  C 401.72 442.40 388.16 422.03 362.71 416.51
  Q 353.95 414.60 343.49 414.48
  Q 315.83 414.15 287.03 414.38
  A 0.49 0.49 0.0 0 0 286.54 414.87
  L 286.54 567.73
  A 0.49 0.49 0.0 0 0 287.03 568.22
  L 323.20 568.22
  A 0.35 0.35 0.0 0 0 323.55 567.87
  Z
  M 508.80 507.38
  A 0.40 0.40 0.0 0 0 509.20 506.98
  L 509.20 474.41
  A 0.40 0.40 0.0 0 0 508.80 474.01
  L 455.96 474.01
  A 0.40 0.40 0.0 0 1 455.56 473.61
  L 455.56 449.05
  A 0.40 0.40 0.0 0 1 455.96 448.65
  L 515.37 448.65
  A 0.40 0.40 0.0 0 0 515.77 448.25
  L 515.77 414.68
  A 0.40 0.40 0.0 0 0 515.37 414.28
  L 418.88 414.28
  A 0.40 0.40 0.0 0 0 418.48 414.68
  L 418.48 567.48
  A 0.40 0.40 0.0 0 0 418.88 567.88
  L 516.53 567.88
  A 0.40 0.40 0.0 0 0 516.93 567.48
  L 516.93 534.76
  A 0.40 0.40 0.0 0 0 516.53 534.36
  L 456.10 534.36
  A 0.40 0.40 0.0 0 1 455.70 533.96
  L 455.70 507.78
  A 0.40 0.40 0.0 0 1 456.10 507.38
  L 508.80 507.38
  Z
  M 533.29 568.07
  L 568.78 568.07
  A 0.38 0.37 -90.0 0 0 569.15 567.69
  L 569.15 522.36
  A 0.47 0.47 0.0 0 1 569.63 521.89
  Q 585.95 522.09 590.56 521.82
  Q 604.41 521.02 609.59 519.79
  C 633.13 514.21 648.77 496.70 649.05 472.02
  Q 649.14 464.38 648.79 461.74
  Q 645.20 434.82 622.89 422.25
  C 613.75 417.10 601.36 414.53 591.32 414.40
  Q 573.07 414.15 533.10 414.33
  A 0.39 0.39 0.0 0 0 532.71 414.72
  L 532.71 567.49
  A 0.58 0.58 0.0 0 0 533.29 568.07
  Z
  M 695.67 414.28
  A 0.31 0.31 0.0 0 0 695.38 414.49
  L 643.87 567.74
  A 0.31 0.31 0.0 0 0 644.16 568.15
  L 680.63 568.15
  A 0.31 0.31 0.0 0 0 680.92 567.94
  L 691.12 537.58
  A 0.31 0.31 0.0 0 1 691.41 537.37
  L 744.85 537.37
  A 0.31 0.31 0.0 0 1 745.14 537.58
  L 755.77 567.11
  A 0.31 0.31 0.0 0 0 756.06 567.32
  L 792.12 567.32
  A 0.31 0.31 0.0 0 0 792.41 566.91
  L 740.91 414.49
  A 0.31 0.31 0.0 0 0 740.62 414.28
  L 695.67 414.28
  Z
  M 840.97 414.66
  A 0.43 0.43 0.0 0 0 840.54 414.23
  L 804.20 414.23
  A 0.43 0.43 0.0 0 0 803.77 414.66
  L 803.77 567.20
  A 0.43 0.43 0.0 0 0 804.20 567.63
  L 840.54 567.63
  A 0.43 0.43 0.0 0 0 840.97 567.20
  L 840.97 414.66
  Z
  M 898.80 518.06
  L 914.71 518.06
  A 1.27 1.25 76.7 0 1 915.84 518.77
  L 938.81 565.58
  A 2.88 2.88 0.0 0 0 941.40 567.20
  L 975.74 567.20
  A 0.51 0.50 76.8 0 0 976.19 566.47
  L 950.11 513.31
  A 0.47 0.47 0.0 0 1 950.34 512.68
  C 964.18 506.57 972.17 495.11 975.29 480.79
  C 978.51 466.05 977.22 450.26 969.51 437.68
  C 962.81 426.74 951.52 419.24 938.88 416.43
  Q 929.66 414.38 924.23 414.33
  Q 910.34 414.20 862.72 414.30
  A 0.48 0.47 -0.0 0 0 862.24 414.77
  L 862.24 567.04
  A 0.67 0.67 0.0 0 0 862.91 567.71
  L 897.51 567.71
  A 0.54 0.54 0.0 0 0 898.05 567.17
  L 898.05 518.81
  A 0.75 0.75 0.0 0 1 898.80 518.06
  Z
  M 818.45 641.84
  Q 813.42 635.56 811.53 630.73
  Q 794.07 586.15 792.58 582.22
  A 0.62 0.62 0.0 0 0 792.00 581.82
  L 763.73 581.82
  A 0.33 0.33 0.0 0 0 763.43 582.29
  C 766.42 589.01 769.61 597.91 772.73 605.07
  Q 776.85 614.52 779.45 622.60
  C 781.90 630.21 786.23 637.36 793.62 640.52
  Q 798.09 642.43 799.64 642.43
  Q 806.55 642.46 818.19 642.39
  A 0.34 0.34 0.0 0 0 818.45 641.84
  Z
  M 954.49 585.62
  A 0.33 0.33 0.0 0 0 954.16 585.29
  L 824.26 585.29
  A 0.33 0.33 0.0 0 0 823.96 585.74
  L 835.40 615.00
  A 0.33 0.33 0.0 0 0 835.71 615.21
  L 954.16 615.21
  A 0.33 0.33 0.0 0 0 954.49 614.88
  L 954.49 585.62
  Z
  M 816.30 624.62
  C 818.71 631.39 821.94 638.45 828.35 642.15
  A 1.94 1.94 0.0 0 0 829.32 642.41
  Q 953.85 642.37 960.75 642.37
  Q 970.41 642.36 974.03 641.88
  A 8.05 7.92 -57.6 0 0 975.50 641.54
  Q 987.33 637.51 988.46 624.93
  A 0.46 0.46 0.0 0 0 988.00 624.42
  L 970.09 624.42
  A 0.37 0.37 0.0 0 1 969.72 624.05
  L 969.05 585.57
  A 0.27 0.27 0.0 0 0 968.78 585.30
  L 960.85 585.30
  A 0.09 0.09 0.0 0 0 960.76 585.39
  L 960.76 624.06
  A 0.36 0.35 0.0 0 1 960.40 624.41
  L 816.44 624.41
  A 0.16 0.15 80.3 0 0 816.30 624.62
  Z"
/>
<path fill="#D4AF37" d="
  M 710.48 113.52
  A 0.35 0.34 -18.7 0 1 710.05 113.32
  C 704.39 98.11 694.92 89.28 677.74 90.41
  C 666.49 91.14 657.92 98.21 652.23 108.00
  C 644.72 120.91 644.22 139.16 648.91 153.56
  Q 652.08 163.29 659.67 170.33
  Q 671.30 181.13 686.40 178.74
  C 698.42 176.83 705.75 168.05 709.87 157.25
  A 0.89 0.89 0.0 0 1 711.02 156.74
  L 752.27 172.89
  A 0.51 0.50 18.9 0 1 752.57 173.49
  C 745.83 198.16 720.32 217.36 695.50 220.53
  Q 686.60 221.66 675.95 221.29
  C 658.87 220.69 642.62 214.09 629.89 203.57
  Q 605.91 183.77 601.24 152.00
  C 595.61 113.77 609.16 74.43 644.51 56.04
  C 660.82 47.55 681.46 46.68 699.56 50.65
  Q 727.16 56.71 743.97 79.24
  Q 750.09 87.44 752.97 96.82
  A 1.06 1.06 0.0 0 1 752.52 98.03
  Q 751.23 98.86 749.36 99.59
  Q 730.51 106.92 710.48 113.52
  Z"
/>
<path fill="#D4AF37" d="
  M 840.38 113.44
  Q 860.73 113.45 865.69 113.42
  A 0.52 0.52 0.0 0 0 866.21 112.90
  L 866.21 49.96
  A 0.58 0.57 0.0 0 1 866.79 49.39
  L 911.56 49.39
  A 0.31 0.31 0.0 0 1 911.87 49.70
  L 911.87 219.57
  A 0.66 0.65 -90.0 0 1 911.22 220.23
  L 866.60 220.23
  A 0.41 0.41 0.0 0 1 866.19 219.82
  L 866.19 155.16
  A 0.44 0.44 0.0 0 0 865.75 154.72
  Q 852.76 154.74 840.36 154.73
  Q 827.96 154.73 814.98 154.70
  A 0.44 0.44 0.0 0 0 814.54 155.14
  L 814.48 219.80
  A 0.41 0.41 0.0 0 1 814.07 220.21
  L 769.45 220.17
  A 0.66 0.65 -90.0 0 1 768.80 219.51
  L 768.94 49.64
  A 0.31 0.31 0.0 0 1 769.25 49.33
  L 814.02 49.37
  A 0.58 0.57 0.0 0 1 814.60 49.94
  L 814.55 112.88
  A 0.52 0.52 0.0 0 0 815.07 113.40
  Q 820.04 113.43 840.38 113.44
  Z"
/>
<path fill="#D4AF37" d="
  M 286.06 92.39
  L 286.06 50.50
  A 0.47 0.47 0.0 0 1 286.53 50.03
  L 438.69 50.03
  A 0.47 0.47 0.0 0 1 439.16 50.50
  L 439.16 92.39
  A 0.47 0.47 0.0 0 1 438.69 92.86
  L 387.12 92.86
  A 0.47 0.47 0.0 0 0 386.65 93.33
  L 386.65 219.16
  A 0.47 0.47 0.0 0 1 386.18 219.63
  L 340.36 219.63
  A 0.47 0.47 0.0 0 1 339.89 219.16
  L 339.89 93.33
  A 0.47 0.47 0.0 0 0 339.42 92.86
  L 286.53 92.86
  A 0.47 0.47 0.0 0 1 286.06 92.39
  Z"
/>
<path fill="#D4AF37" d="
  M 502.60 93.36
  L 502.60 112.93
  A 0.51 0.51 0.0 0 0 503.11 113.44
  L 575.78 113.44
  A 0.51 0.51 0.0 0 1 576.29 113.95
  L 576.29 154.28
  A 0.51 0.51 0.0 0 1 575.78 154.79
  L 503.08 154.79
  A 0.51 0.51 0.0 0 0 502.57 155.30
  L 502.57 176.56
  A 0.51 0.51 0.0 0 0 503.08 177.07
  L 586.36 177.07
  A 0.51 0.51 0.0 0 1 586.87 177.58
  L 586.87 219.12
  A 0.51 0.51 0.0 0 1 586.36 219.63
  L 456.87 219.63
  A 0.51 0.51 0.0 0 1 456.36 219.12
  L 456.36 50.54
  A 0.51 0.51 0.0 0 1 456.87 50.03
  L 585.82 50.03
  A 0.51 0.51 0.0 0 1 586.33 50.54
  L 586.33 92.34
  A 0.51 0.51 0.0 0 1 585.82 92.85
  L 503.11 92.85
  A 0.51 0.51 0.0 0 0 502.60 93.36
  Z"
/>
<path fill="#f9fafb" d="
  M 864.25 350.97
  A 0.53 0.53 0.0 0 1 864.59 351.61
  C 858.16 375.60 837.31 394.64 812.01 396.36
  Q 796.24 397.44 782.52 392.50
  Q 774.96 389.78 767.33 383.43
  C 758.62 376.20 751.49 368.68 746.60 358.67
  Q 744.53 354.45 741.92 346.95
  C 738.87 338.17 738.07 329.43 737.25 319.96
  Q 736.73 314.09 737.58 309.07
  C 738.29 304.83 738.45 299.24 739.51 294.59
  Q 747.19 260.69 776.54 244.03
  Q 784.58 239.46 795.79 237.63
  C 799.89 236.97 805.35 237.10 809.73 237.24
  Q 818.13 237.52 827.65 240.64
  C 847.16 247.03 860.85 263.61 865.72 283.53
  A 0.70 0.69 75.6 0 1 865.24 284.36
  L 832.21 293.82
  A 0.66 0.65 -17.2 0 1 831.42 293.41
  C 827.85 282.90 820.70 272.20 808.53 271.28
  Q 796.97 270.40 788.65 277.44
  C 778.20 286.27 774.44 300.37 774.12 314.24
  C 773.76 329.65 778.42 350.96 793.85 358.97
  C 800.77 362.56 809.56 363.11 817.00 360.08
  C 825.13 356.77 829.60 348.72 832.84 340.99
  A 0.59 0.58 -69.4 0 1 833.56 340.66
  L 864.25 350.97
  Z"
/>
<path fill="#f9fafb" d="
  M 518.56 331.54
  L 468.31 331.54
  A 0.30 0.30 0.0 0 0 468.01 331.84
  L 468.01 360.11
  A 0.30 0.30 0.0 0 0 468.31 360.41
  L 525.54 360.41
  A 0.30 0.30 0.0 0 1 525.84 360.71
  L 525.84 395.60
  A 0.30 0.30 0.0 0 1 525.54 395.90
  L 432.73 395.90
  A 0.30 0.30 0.0 0 1 432.43 395.60
  L 432.43 238.75
  A 0.30 0.30 0.0 0 1 432.73 238.45
  L 522.73 238.45
  A 0.30 0.30 0.0 0 1 523.03 238.75
  L 523.03 272.48
  A 0.30 0.30 0.0 0 1 522.73 272.78
  L 468.30 272.78
  A 0.30 0.30 0.0 0 0 468.00 273.08
  L 468.00 298.01
  A 0.30 0.30 0.0 0 0 468.30 298.31
  L 518.56 298.31
  A 0.30 0.30 0.0 0 1 518.86 298.61
  L 518.86 331.24
  A 0.30 0.30 0.0 0 1 518.56 331.54
  Z"
/>
<path fill="#f9fafb" d="
  M 604.34 352.75
  Q 604.63 352.75 604.74 352.34
  Q 619.59 297.09 635.29 240.68
  Q 635.89 238.54 637.72 238.52
  Q 653.79 238.35 674.03 238.52
  A 0.32 0.32 0.0 0 1 674.33 238.93
  L 626.93 394.95
  A 1.42 1.42 0.0 0 1 625.60 395.95
  Q 625.25 395.96 604.31 395.94
  Q 583.36 395.93 583.01 395.92
  A 1.42 1.42 0.0 0 1 581.68 394.91
  L 534.53 238.82
  A 0.32 0.32 0.0 0 1 534.83 238.41
  Q 555.07 238.27 571.14 238.47
  Q 572.97 238.49 573.57 240.63
  Q 589.18 297.07 603.94 352.34
  Q 604.05 352.75 604.34 352.75
  Z"
/>
<rect fill="#f9fafb" x="686.02" y="238.33" width="35.82" height="156.74" rx="0.42"/>
<path fill="#f9fafb" d="
  M 973.93 239.02
  L 973.93 272.49
  A 0.31 0.31 0.0 0 1 973.62 272.80
  L 915.61 272.80
  A 0.31 0.31 0.0 0 0 915.30 273.11
  L 915.30 298.23
  A 0.31 0.31 0.0 0 0 915.61 298.54
  L 967.37 298.54
  A 0.31 0.31 0.0 0 1 967.68 298.85
  L 967.68 330.73
  A 0.31 0.31 0.0 0 1 967.37 331.04
  L 915.62 331.04
  A 0.31 0.31 0.0 0 0 915.31 331.35
  L 915.31 359.88
  A 0.31 0.31 0.0 0 0 915.62 360.19
  L 975.04 360.19
  A 0.31 0.31 0.0 0 1 975.35 360.50
  L 975.35 395.41
  A 0.31 0.31 0.0 0 1 975.04 395.72
  L 880.51 395.72
  A 0.31 0.31 0.0 0 1 880.20 395.41
  L 880.20 239.02
  A 0.31 0.31 0.0 0 1 880.51 238.71
  L 973.62 238.71
  A 0.31 0.31 0.0 0 1 973.93 239.02
  Z"
/>
<path fill="#D4AF37" d="
  M 287.70 396.01
  A 1.18 1.17 -90.0 0 1 286.53 394.83
  L 286.53 239.78
  A 0.90 0.90 0.0 0 1 287.43 238.88
  Q 319.63 238.87 351.75 238.87
  Q 363.26 238.86 369.48 239.81
  Q 374.55 240.58 382.39 244.00
  C 394.48 249.26 404.73 261.78 410.29 273.50
  Q 415.45 284.36 417.19 300.28
  Q 419.81 324.25 413.92 347.98
  C 408.37 370.37 393.05 389.22 369.83 394.33
  Q 362.53 395.94 354.50 395.98
  Q 325.24 396.11 287.70 396.01
  Z
  M 378.9259 271.4954
  A 10.91 10.91 0.0 0 0 367.9969 260.6045
  L 315.7170 260.6957
  A 10.91 10.91 0.0 0 0 304.8261 271.6247
  L 304.9941 367.8846
  A 10.91 10.91 0.0 0 0 315.9231 378.7755
  L 368.2030 378.6843
  A 10.91 10.91 0.0 0 0 379.0939 367.7553
  L 378.9259 271.4954
  Z"
/>
<path fill="#000000" d="
  M 379.0939 367.7553
  A 10.91 10.91 0.0 0 1 368.2030 378.6843
  L 315.9231 378.7755
  A 10.91 10.91 0.0 0 1 304.9941 367.8846
  L 304.8261 271.6247
  A 10.91 10.91 0.0 0 1 315.7170 260.6957
  L 367.9969 260.6045
  A 10.91 10.91 0.0 0 1 378.9259 271.4954
  L 379.0939 367.7553
  Z
  M 351.8711 275.4174
  A 2.37 2.37 0.0 0 0 349.5052 273.0433
  L 334.2652 273.0167
  A 2.37 2.37 0.0 0 0 331.8911 275.3826
  L 331.8889 276.6426
  A 2.37 2.37 0.0 0 0 334.2548 279.0167
  L 349.4948 279.0433
  A 2.37 2.37 0.0 0 0 351.8689 276.6774
  L 351.8711 275.4174
  Z"
/>
<rect fill="#f9fafb" x="-9.99" y="-3.00" transform="translate(341.88,276.03) rotate(0.1)" width="19.98" height="6.00" rx="2.37"/>
<path fill="#D4AF37" d="
  M 323.55 567.87
  A 0.35 0.35 0.0 0 1 323.20 568.22
  L 287.03 568.22
  A 0.49 0.49 0.0 0 1 286.54 567.73
  L 286.54 414.87
  A 0.49 0.49 0.0 0 1 287.03 414.38
  Q 315.83 414.15 343.49 414.48
  Q 353.95 414.60 362.71 416.51
  C 388.16 422.03 401.72 442.40 401.63 467.84
  C 401.56 486.27 393.78 504.48 376.33 512.08
  A 0.64 0.63 65.6 0 0 376.01 512.94
  L 402.08 566.07
  A 1.14 1.14 0.0 0 1 401.06 567.71
  L 366.50 567.71
  A 2.19 2.18 76.9 0 1 364.54 566.48
  L 342.03 520.60
  A 1.06 1.04 76.8 0 0 341.09 520.01
  L 323.96 520.01
  A 0.41 0.41 0.0 0 0 323.55 520.42
  L 323.55 567.87
  Z
  M 323.40 448.93
  L 323.60 486.63
  A 0.24 0.24 0.0 0 0 323.84 486.87
  L 345.69 486.75
  A 19.33 18.33 -0.3 0 0 364.92 468.32
  L 364.92 466.80
  A 19.33 18.33 -0.3 0 0 345.49 448.57
  L 323.64 448.69
  A 0.24 0.24 0.0 0 0 323.40 448.93
  Z"
/>
<path fill="#D4AF37" d="
  M 508.80 507.38
  L 456.10 507.38
  A 0.40 0.40 0.0 0 0 455.70 507.78
  L 455.70 533.96
  A 0.40 0.40 0.0 0 0 456.10 534.36
  L 516.53 534.36
  A 0.40 0.40 0.0 0 1 516.93 534.76
  L 516.93 567.48
  A 0.40 0.40 0.0 0 1 516.53 567.88
  L 418.88 567.88
  A 0.40 0.40 0.0 0 1 418.48 567.48
  L 418.48 414.68
  A 0.40 0.40 0.0 0 1 418.88 414.28
  L 515.37 414.28
  A 0.40 0.40 0.0 0 1 515.77 414.68
  L 515.77 448.25
  A 0.40 0.40 0.0 0 1 515.37 448.65
  L 455.96 448.65
  A 0.40 0.40 0.0 0 0 455.56 449.05
  L 455.56 473.61
  A 0.40 0.40 0.0 0 0 455.96 474.01
  L 508.80 474.01
  A 0.40 0.40 0.0 0 1 509.20 474.41
  L 509.20 506.98
  A 0.40 0.40 0.0 0 1 508.80 507.38
  Z"
/>
<path fill="#D4AF37" d="
  M 533.29 568.07
  A 0.58 0.58 0.0 0 1 532.71 567.49
  L 532.71 414.72
  A 0.39 0.39 0.0 0 1 533.10 414.33
  Q 573.07 414.15 591.32 414.40
  C 601.36 414.53 613.75 417.10 622.89 422.25
  Q 645.20 434.82 648.79 461.74
  Q 649.14 464.38 649.05 472.02
  C 648.77 496.70 633.13 514.21 609.59 519.79
  Q 604.41 521.02 590.56 521.82
  Q 585.95 522.09 569.63 521.89
  A 0.47 0.47 0.0 0 0 569.15 522.36
  L 569.15 567.69
  A 0.38 0.37 90.0 0 1 568.78 568.07
  L 533.29 568.07
  Z
  M 569.20 449.19
  L 569.14 488.37
  A 0.31 0.31 0.0 0 0 569.45 488.68
  L 591.08 488.72
  A 21.22 19.74 0.1 0 0 612.33 469.02
  L 612.33 468.70
  A 21.22 19.74 0.1 0 0 591.14 448.92
  L 569.51 448.88
  A 0.31 0.31 0.0 0 0 569.20 449.19
  Z"
/>
<path fill="#D4AF37" d="
  M 695.67 414.28
  L 740.62 414.28
  A 0.31 0.31 0.0 0 1 740.91 414.49
  L 792.41 566.91
  A 0.31 0.31 0.0 0 1 792.12 567.32
  L 756.06 567.32
  A 0.31 0.31 0.0 0 1 755.77 567.11
  L 745.14 537.58
  A 0.31 0.31 0.0 0 0 744.85 537.37
  L 691.41 537.37
  A 0.31 0.31 0.0 0 0 691.12 537.58
  L 680.92 567.94
  A 0.31 0.31 0.0 0 1 680.63 568.15
  L 644.16 568.15
  A 0.31 0.31 0.0 0 1 643.87 567.74
  L 695.38 414.49
  A 0.31 0.31 0.0 0 1 695.67 414.28
  Z
  M 702.12 506.03
  A 0.32 0.32 0.0 0 0 702.42 506.45
  L 734.73 506.22
  A 0.32 0.32 0.0 0 0 735.03 505.80
  L 718.54 456.72
  A 0.32 0.32 0.0 0 0 717.93 456.73
  L 702.12 506.03
  Z"
/>
<rect fill="#D4AF37" x="803.77" y="414.23" width="37.20" height="153.40" rx="0.43"/>
<path fill="#D4AF37" d="
  M 898.80 518.06
  A 0.75 0.75 0.0 0 0 898.05 518.81
  L 898.05 567.17
  A 0.54 0.54 0.0 0 1 897.51 567.71
  L 862.91 567.71
  A 0.67 0.67 0.0 0 1 862.24 567.04
  L 862.24 414.77
  A 0.48 0.47 0.0 0 1 862.72 414.30
  Q 910.34 414.20 924.23 414.33
  Q 929.66 414.38 938.88 416.43
  C 951.52 419.24 962.81 426.74 969.51 437.68
  C 977.22 450.26 978.51 466.05 975.29 480.79
  C 972.17 495.11 964.18 506.57 950.34 512.68
  A 0.47 0.47 0.0 0 0 950.11 513.31
  L 976.19 566.47
  A 0.51 0.50 76.8 0 1 975.74 567.20
  L 941.40 567.20
  A 2.88 2.88 0.0 0 1 938.81 565.58
  L 915.84 518.77
  A 1.27 1.25 76.7 0 0 914.71 518.06
  L 898.80 518.06
  Z
  M 898.00 448.26
  L 898.12 485.24
  A 0.41 0.41 0.0 0 0 898.54 485.65
  L 922.15 485.57
  A 18.46 17.46 -0.2 0 0 940.54 468.05
  L 940.53 465.17
  A 18.46 17.46 -0.2 0 0 922.01 447.77
  L 898.40 447.85
  A 0.41 0.41 0.0 0 0 898.00 448.26
  Z"
/>
<path fill="#000000" d="
  M 898.00 448.26
  A 0.41 0.41 0.0 0 1 898.40 447.85
  L 922.01 447.77
  A 18.46 17.46 -0.2 0 1 940.53 465.17
  L 940.54 468.05
  A 18.46 17.46 -0.2 0 1 922.15 485.57
  L 898.54 485.65
  A 0.41 0.41 0.0 0 1 898.12 485.24
  L 898.00 448.26
  Z"
/>
<path fill="#000000" d="
  M 323.40 448.93
  A 0.24 0.24 0.0 0 1 323.64 448.69
  L 345.49 448.57
  A 19.33 18.33 -0.3 0 1 364.92 466.80
  L 364.92 468.32
  A 19.33 18.33 -0.3 0 1 345.69 486.75
  L 323.84 486.87
  A 0.24 0.24 0.0 0 1 323.60 486.63
  L 323.40 448.93
  Z"
/>
<path fill="#000000" d="
  M 569.20 449.19
  A 0.31 0.31 0.0 0 1 569.51 448.88
  L 591.14 448.92
  A 21.22 19.74 0.1 0 1 612.33 468.70
  L 612.33 469.02
  A 21.22 19.74 0.1 0 1 591.08 488.72
  L 569.45 488.68
  A 0.31 0.31 0.0 0 1 569.14 488.37
  L 569.20 449.19
  Z"
/>
<path fill="#000000" d="
  M 702.12 506.03
  L 717.93 456.73
  A 0.32 0.32 0.0 0 1 718.54 456.72
  L 735.03 505.80
  A 0.32 0.32 0.0 0 1 734.73 506.22
  L 702.42 506.45
  A 0.32 0.32 0.0 0 1 702.12 506.03
  Z"
/>
<path fill="#f9fafb" d="
  M 818.19 642.39
  Q 806.55 642.46 799.64 642.43
  Q 798.09 642.43 793.62 640.52
  C 786.23 637.36 781.90 630.21 779.45 622.60
  Q 776.85 614.52 772.73 605.07
  C 769.61 597.91 766.42 589.01 763.43 582.29
  A 0.33 0.33 0.0 0 1 763.73 581.82
  L 792.00 581.82
  A 0.62 0.62 0.0 0 1 792.58 582.22
  Q 794.07 586.15 811.53 630.73
  Q 813.42 635.56 818.45 641.84
  A 0.34 0.34 0.0 0 1 818.19 642.39
  Z"
/>
<path fill="#f9fafb" d="
  M 954.49 585.62
  L 954.49 614.88
  A 0.33 0.33 0.0 0 1 954.16 615.21
  L 835.71 615.21
  A 0.33 0.33 0.0 0 1 835.40 615.00
  L 823.96 585.74
  A 0.33 0.33 0.0 0 1 824.26 585.29
  L 954.16 585.29
  A 0.33 0.33 0.0 0 1 954.49 585.62
  Z"
/>
<path fill="#f9fafb" d="
  M 816.30 624.62
  A 0.16 0.15 80.3 0 1 816.44 624.41
  L 960.40 624.41
  A 0.36 0.35 0.0 0 0 960.76 624.06
  L 960.76 585.39
  A 0.09 0.09 0.0 0 1 960.85 585.30
  L 968.78 585.30
  A 0.27 0.27 0.0 0 1 969.05 585.57
  L 969.72 624.05
  A 0.37 0.37 0.0 0 0 970.09 624.42
  L 988.00 624.42
  A 0.46 0.46 0.0 0 1 988.46 624.93
  Q 987.33 637.51 975.50 641.54
  A 8.05 7.92 -57.6 0 1 974.03 641.88
  Q 970.41 642.36 960.75 642.37
  Q 953.85 642.37 829.32 642.41
  A 1.94 1.94 0.0 0 1 828.35 642.15
  C 821.94 638.45 818.71 631.39 816.30 624.62
  Z"
/>
</svg>
