<?xml version="1.0" encoding="UTF-8"?>
<svg width="1400" height="3200" xmlns="http://www.w3.org/2000/svg">
  <defs>
    <style>
      .title { font-family: 'Inter', Arial, sans-serif; font-size: 28px; font-weight: 700; fill: #f9fafb; }
      .subtitle { font-family: 'Inter', Arial, sans-serif; font-size: 16px; font-weight: 600; fill: #d1d5db; }
      .color-label { font-family: 'Inter', Arial, sans-serif; font-size: 14px; font-weight: 500; fill: #e5e7eb; }
      .color-hex { font-family: 'Monaco', 'Courier New', monospace; font-size: 12px; fill: #9ca3af; }
      .section-title { font-family: 'Inter', Arial, sans-serif; font-size: 20px; font-weight: 700; fill: #f9fafb; }
      .desc-text { font-family: 'Inter', Arial, sans-serif; font-size: 13px; fill: #d1d5db; }
      .dark-card { fill: #1f2937; stroke: #374151; stroke-width: 2; }
      .label-dark { fill: #111827; }
    </style>
  </defs>
  
  <!-- Background -->
  <rect width="1400" height="3200" fill="#0a0a0a"/>
  
  <!-- Main Title -->
  <text x="700" y="50" text-anchor="middle" class="title">Dark Mode Color Palette Options</text>
  <text x="700" y="80" text-anchor="middle" class="subtitle">Multiple Dark Theme Variations for Tech Device Repair</text>
  
  <!-- Option 1: True Black &amp; Bright Gold -->
  <rect x="50" y="120" width="1300" height="320" class="dark-card" rx="12"/>
  <text x="80" y="160" class="section-title">Option 1: True Black &amp; Bright Gold</text>
  <text x="80" y="185" class="desc-text">OLED-friendly with pure black backgrounds. High contrast for readability. Best for mobile OLED screens.</text>
  
  <!-- Backgrounds -->
  <text x="100" y="220" class="color-label">Backgrounds:</text>
  <rect x="100" y="230" width="110" height="90" fill="#000000" rx="4"/>
  <text x="155" y="330" text-anchor="middle" class="color-label">Black</text>
  <text x="155" y="345" text-anchor="middle" class="color-hex">#000000</text>
  
  <rect x="230" y="230" width="110" height="90" fill="#0A0A0A" rx="4"/>
  <text x="285" y="330" text-anchor="middle" class="color-label">Near Black</text>
  <text x="285" y="345" text-anchor="middle" class="color-hex">#0A0A0A</text>
  
  <rect x="360" y="230" width="110" height="90" fill="#1A1A1A" rx="4"/>
  <text x="415" y="330" text-anchor="middle" class="color-label">Dark Gray</text>
  <text x="415" y="345" text-anchor="middle" class="color-hex">#1A1A1A</text>
  
  <rect x="490" y="230" width="110" height="90" fill="#2A2A2A" rx="4"/>
  <text x="545" y="330" text-anchor="middle" class="color-label">Card</text>
  <text x="545" y="345" text-anchor="middle" class="color-hex">#2A2A2A</text>
  
  <!-- Gold Accents -->
  <text x="650" y="220" class="color-label">Gold Accents:</text>
  <rect x="650" y="230" width="110" height="90" fill="#F5D858" rx="4"/>
  <text x="705" y="330" text-anchor="middle" class="color-label">Bright Gold</text>
  <text x="705" y="345" text-anchor="middle" class="color-hex">#F5D858</text>
  
  <rect x="780" y="230" width="110" height="90" fill="#E6C96F" rx="4"/>
  <text x="835" y="330" text-anchor="middle" class="color-label">Gold</text>
  <text x="835" y="345" text-anchor="middle" class="color-hex">#E6C96F</text>
  
  <rect x="910" y="230" width="110" height="90" fill="#D4AF37" rx="4"/>
  <text x="965" y="330" text-anchor="middle" class="color-label">Original</text>
  <text x="965" y="345" text-anchor="middle" class="color-hex">#D4AF37</text>
  
  <!-- Text -->
  <text x="1070" y="220" class="color-label">Text:</text>
  <rect x="1070" y="230" width="110" height="40" fill="#FFFFFF" rx="4"/>
  <text x="1125" y="280" text-anchor="middle" class="color-label">Primary</text>
  <text x="1125" y="295" text-anchor="middle" class="color-hex">#FFFFFF</text>
  
  <rect x="1200" y="230" width="110" height="40" fill="#D1D5DB" rx="4"/>
  <text x="1255" y="280" text-anchor="middle" class="color-label">Secondary</text>
  <text x="1255" y="295" text-anchor="middle" class="color-hex">#D1D5DB</text>
  
  <rect x="1070" y="280" width="110" height="40" fill="#9CA3AF" rx="4"/>
  <text x="1125" y="330" text-anchor="middle" class="color-label">Muted</text>
  <text x="1125" y="345" text-anchor="middle" class="color-hex">#9CA3AF</text>
  
  <rect x="1200" y="280" width="110" height="40" fill="#6B7280" rx="4"/>
  <text x="1255" y="330" text-anchor="middle" class="color-label">Disabled</text>
  <text x="1255" y="345" text-anchor="middle" class="color-hex">#6B7280</text>
  
  <!-- Pros/Cons -->
  <text x="100" y="380" class="color-hex">✓ Perfect for OLED displays  ✓ Maximum contrast  ✓ Battery efficient on mobile</text>
  <text x="100" y="405" class="color-hex" fill="#ef4444">⚠ Can cause eye strain in bright environments  ⚠ Very harsh contrast</text>
  
  <!-- Option 2: Soft Dark &amp; Warm Gold -->
  <rect x="50" y="460" width="1300" height="320" class="dark-card" rx="12"/>
  <text x="80" y="500" class="section-title">Option 2: Soft Dark &amp; Warm Gold (Recommended)</text>
  <text x="80" y="525" class="desc-text">Balanced dark theme with warm tones. Comfortable for extended viewing. Best for desktop and general use.</text>
  
  <text x="100" y="560" class="color-label">Backgrounds:</text>
  <rect x="100" y="570" width="110" height="90" fill="#0F0F0F" rx="4"/>
  <text x="155" y="670" text-anchor="middle" class="color-label">Base</text>
  <text x="155" y="685" text-anchor="middle" class="color-hex">#0F0F0F</text>
  
  <rect x="230" y="570" width="110" height="90" fill="#1A1A1A" rx="4"/>
  <text x="285" y="670" text-anchor="middle" class="color-label">Surface</text>
  <text x="285" y="685" text-anchor="middle" class="color-hex">#1A1A1A</text>
  
  <rect x="360" y="570" width="110" height="90" fill="#252525" rx="4"/>
  <text x="415" y="670" text-anchor="middle" class="color-label">Card</text>
  <text x="415" y="685" text-anchor="middle" class="color-hex">#252525</text>
  
  <rect x="490" y="570" width="110" height="90" fill="#2F2F2F" rx="4"/>
  <text x="545" y="670" text-anchor="middle" class="color-label">Elevated</text>
  <text x="545" y="685" text-anchor="middle" class="color-hex">#2F2F2F</text>
  
  <text x="650" y="560" class="color-label">Gold Accents:</text>
  <rect x="650" y="570" width="110" height="90" fill="#E6C96F" rx="4"/>
  <text x="705" y="670" text-anchor="middle" class="color-label">Primary</text>
  <text x="705" y="685" text-anchor="middle" class="color-hex">#E6C96F</text>
  
  <rect x="780" y="570" width="110" height="90" fill="#D4AF37" rx="4"/>
  <text x="835" y="670" text-anchor="middle" class="color-label">Hover</text>
  <text x="835" y="685" text-anchor="middle" class="color-hex">#D4AF37</text>
  
  <rect x="910" y="570" width="110" height="90" fill="#C29A2B" rx="4"/>
  <text x="965" y="670" text-anchor="middle" class="color-label">Active</text>
  <text x="965" y="685" text-anchor="middle" class="color-hex">#C29A2B</text>
  
  <text x="1070" y="560" class="color-label">Text:</text>
  <rect x="1070" y="570" width="110" height="40" fill="#F9FAFB" rx="4"/>
  <text x="1125" y="620" text-anchor="middle" class="color-label">Primary</text>
  <text x="1125" y="635" text-anchor="middle" class="color-hex">#F9FAFB</text>
  
  <rect x="1200" y="570" width="110" height="40" fill="#E5E7EB" rx="4"/>
  <text x="1255" y="620" text-anchor="middle" class="color-label">Secondary</text>
  <text x="1255" y="635" text-anchor="middle" class="color-hex">#E5E7EB</text>
  
  <rect x="1070" y="620" width="110" height="40" fill="#A8A8A8" rx="4"/>
  <text x="1125" y="670" text-anchor="middle" class="color-label">Muted</text>
  <text x="1125" y="685" text-anchor="middle" class="color-hex">#A8A8A8</text>
  
  <rect x="1200" y="620" width="110" height="40" fill="#737373" rx="4"/>
  <text x="1255" y="670" text-anchor="middle" class="color-label">Disabled</text>
  <text x="1255" y="685" text-anchor="middle" class="color-hex">#737373</text>
  
  <text x="100" y="720" class="color-hex">✓ Comfortable for long viewing  ✓ Warm and professional  ✓ Works well in any lighting</text>
  <text x="100" y="745" class="color-hex" fill="#10b981">✓ RECOMMENDED: Best balance of aesthetics and usability</text>
  
  <!-- Option 3: Blue-Tinted Dark &amp; Cool Gold -->
  <rect x="50" y="800" width="1300" height="320" class="dark-card" rx="12"/>
  <text x="80" y="840" class="section-title">Option 3: Blue-Tinted Dark &amp; Cool Gold</text>
  <text x="80" y="865" class="desc-text">Cool blue-gray backgrounds with refined gold. Modern tech aesthetic. Good for reducing eye strain.</text>
  
  <text x="100" y="900" class="color-label">Backgrounds:</text>
  <rect x="100" y="910" width="110" height="90" fill="#0D1117" rx="4"/>
  <text x="155" y="1010" text-anchor="middle" class="color-label">Base</text>
  <text x="155" y="1025" text-anchor="middle" class="color-hex">#0D1117</text>
  
  <rect x="230" y="910" width="110" height="90" fill="#161B22" rx="4"/>
  <text x="285" y="1010" text-anchor="middle" class="color-label">Surface</text>
  <text x="285" y="1025" text-anchor="middle" class="color-hex">#161B22</text>
  
  <rect x="360" y="910" width="110" height="90" fill="#21262D" rx="4"/>
  <text x="415" y="1010" text-anchor="middle" class="color-label">Card</text>
  <text x="415" y="1025" text-anchor="middle" class="color-hex">#21262D</text>
  
  <rect x="490" y="910" width="110" height="90" fill="#2D333B" rx="4"/>
  <text x="545" y="1010" text-anchor="middle" class="color-label">Elevated</text>
  <text x="545" y="1025" text-anchor="middle" class="color-hex">#2D333B</text>
  
  <text x="650" y="900" class="color-label">Gold Accents:</text>
  <rect x="650" y="910" width="110" height="90" fill="#E8D19A" rx="4"/>
  <text x="705" y="1010" text-anchor="middle" class="color-label">Cool Gold</text>
  <text x="705" y="1025" text-anchor="middle" class="color-hex">#E8D19A</text>
  
  <rect x="780" y="910" width="110" height="90" fill="#D4AF37" rx="4"/>
  <text x="835" y="1010" text-anchor="middle" class="color-label">Hover</text>
  <text x="835" y="1025" text-anchor="middle" class="color-hex">#D4AF37</text>
  
  <rect x="910" y="910" width="110" height="90" fill="#B8A070" rx="4"/>
  <text x="965" y="1010" text-anchor="middle" class="color-label">Muted</text>
  <text x="965" y="1025" text-anchor="middle" class="color-hex">#B8A070</text>
  
  <text x="1070" y="900" class="color-label">Text:</text>
  <rect x="1070" y="910" width="110" height="40" fill="#F0F6FC" rx="4"/>
  <text x="1125" y="960" text-anchor="middle" class="color-label">Primary</text>
  <text x="1125" y="975" text-anchor="middle" class="color-hex">#F0F6FC</text>
  
  <rect x="1200" y="910" width="110" height="40" fill="#C9D1D9" rx="4"/>
  <text x="1255" y="960" text-anchor="middle" class="color-label">Secondary</text>
  <text x="1255" y="975" text-anchor="middle" class="color-hex">#C9D1D9</text>
  
  <rect x="1070" y="960" width="110" height="40" fill="#8B949E" rx="4"/>
  <text x="1125" y="1010" text-anchor="middle" class="color-label">Muted</text>
  <text x="1125" y="1025" text-anchor="middle" class="color-hex">#8B949E</text>
  
  <rect x="1200" y="960" width="110" height="40" fill="#6E7681" rx="4"/>
  <text x="1255" y="1010" text-anchor="middle" class="color-label">Disabled</text>
  <text x="1255" y="1025" text-anchor="middle" class="color-hex">#6E7681</text>
  
  <text x="100" y="1060" class="color-hex">✓ Reduces eye strain  ✓ Modern tech look (GitHub-inspired)  ✓ Professional blue tones</text>
  <text x="100" y="1085" class="color-hex">⚠ Cool tones may feel less warm/welcoming for repair business</text>
  
  <!-- Option 4: Warm Charcoal &amp; Amber Gold -->
  <rect x="50" y="1140" width="1300" height="320" class="dark-card" rx="12"/>
  <text x="80" y="1180" class="section-title">Option 4: Warm Charcoal &amp; Amber Gold</text>
  <text x="80" y="1205" class="desc-text">Rich charcoal with warm amber tones. Luxurious and premium feel. Great for brand differentiation.</text>
  
  <text x="100" y="1240" class="color-label">Backgrounds:</text>
  <rect x="100" y="1250" width="110" height="90" fill="#1C1816" rx="4"/>
  <text x="155" y="1350" text-anchor="middle" class="color-label">Base</text>
  <text x="155" y="1365" text-anchor="middle" class="color-hex">#1C1816</text>
  
  <rect x="230" y="1250" width="110" height="90" fill="#252220" rx="4"/>
  <text x="285" y="1350" text-anchor="middle" class="color-label">Surface</text>
  <text x="285" y="1365" text-anchor="middle" class="color-hex">#252220</text>
  
  <rect x="360" y="1250" width="110" height="90" fill="#2E2A27" rx="4"/>
  <text x="415" y="1350" text-anchor="middle" class="color-label">Card</text>
  <text x="415" y="1365" text-anchor="middle" class="color-hex">#2E2A27</text>
  
  <rect x="490" y="1250" width="110" height="90" fill="#3A3531" rx="4"/>
  <text x="545" y="1350" text-anchor="middle" class="color-label">Elevated</text>
  <text x="545" y="1365" text-anchor="middle" class="color-hex">#3A3531</text>
  
  <text x="650" y="1240" class="color-label">Amber Gold:</text>
  <rect x="650" y="1250" width="110" height="90" fill="#FFD662" rx="4"/>
  <text x="705" y="1350" text-anchor="middle" class="color-label">Bright Amber</text>
  <text x="705" y="1365" text-anchor="middle" class="color-hex">#FFD662</text>
  
  <rect x="780" y="1250" width="110" height="90" fill="#E6C96F" rx="4"/>
  <text x="835" y="1350" text-anchor="middle" class="color-label">Amber</text>
  <text x="835" y="1365" text-anchor="middle" class="color-hex">#E6C96F</text>
  
  <rect x="910" y="1250" width="110" height="90" fill="#D4A04F" rx="4"/>
  <text x="965" y="1350" text-anchor="middle" class="color-label">Dark Amber</text>
  <text x="965" y="1365" text-anchor="middle" class="color-hex">#D4A04F</text>
  
  <text x="1070" y="1240" class="color-label">Text:</text>
  <rect x="1070" y="1250" width="110" height="40" fill="#FFF8ED" rx="4"/>
  <text x="1125" y="1300" text-anchor="middle" class="color-label">Primary</text>
  <text x="1125" y="1315" text-anchor="middle" class="color-hex">#FFF8ED</text>
  
  <rect x="1200" y="1250" width="110" height="40" fill="#E8DCC8" rx="4"/>
  <text x="1255" y="1300" text-anchor="middle" class="color-label">Secondary</text>
  <text x="1255" y="1315" text-anchor="middle" class="color-hex">#E8DCC8</text>
  
  <rect x="1070" y="1300" width="110" height="40" fill="#B0A090" rx="4"/>
  <text x="1125" y="1350" text-anchor="middle" class="color-label">Muted</text>
  <text x="1125" y="1365" text-anchor="middle" class="color-hex">#B0A090</text>
  
  <rect x="1200" y="1300" width="110" height="40" fill="#7A6F60" rx="4"/>
  <text x="1255" y="1350" text-anchor="middle" class="color-label">Disabled</text>
  <text x="1255" y="1365" text-anchor="middle" class="color-hex">#7A6F60</text>
  
  <text x="100" y="1400" class="color-hex">✓ Premium luxurious feel  ✓ Warm and inviting  ✓ Unique brand identity</text>
  <text x="100" y="1425" class="color-hex">⚠ Less common, may not feel familiar  ⚠ Warmer tones can vary on different displays</text>
  
  <!-- Option 5: Midnight Blue &amp; Gold -->
  <rect x="50" y="1480" width="1300" height="320" class="dark-card" rx="12"/>
  <text x="80" y="1520" class="section-title">Option 5: Midnight Blue &amp; Champagne Gold</text>
  <text x="80" y="1545" class="desc-text">Deep blue backgrounds with elegant champagne gold. Professional and trustworthy. Financial/tech industry standard.</text>
  
  <text x="100" y="1580" class="color-label">Backgrounds:</text>
  <rect x="100" y="1590" width="110" height="90" fill="#0A0E1A" rx="4"/>
  <text x="155" y="1690" text-anchor="middle" class="color-label">Midnight</text>
  <text x="155" y="1705" text-anchor="middle" class="color-hex">#0A0E1A</text>
  
  <rect x="230" y="1590" width="110" height="90" fill="#111827" rx="4"/>
  <text x="285" y="1690" text-anchor="middle" class="color-label">Navy</text>
  <text x="285" y="1705" text-anchor="middle" class="color-hex">#111827</text>
  
  <rect x="360" y="1590" width="110" height="90" fill="#1E293B" rx="4"/>
  <text x="415" y="1690" text-anchor="middle" class="color-label">Slate</text>
  <text x="415" y="1705" text-anchor="middle" class="color-hex">#1E293B</text>
  
  <rect x="490" y="1590" width="110" height="90" fill="#2D3748" rx="4"/>
  <text x="545" y="1690" text-anchor="middle" class="color-label">Light Slate</text>
  <text x="545" y="1705" text-anchor="middle" class="color-hex">#2D3748</text>
  
  <text x="650" y="1580" class="color-label">Champagne:</text>
  <rect x="650" y="1590" width="110" height="90" fill="#F5E6D3" rx="4"/>
  <text x="705" y="1690" text-anchor="middle" class="color-label">Champagne</text>
  <text x="705" y="1705" text-anchor="middle" class="color-hex">#F5E6D3</text>
  
  <rect x="780" y="1590" width="110" height="90" fill="#E8D4B0" rx="4"/>
  <text x="835" y="1690" text-anchor="middle" class="color-label">Gold</text>
  <text x="835" y="1705" text-anchor="middle" class="color-hex">#E8D4B0</text>
  
  <rect x="910" y="1590" width="110" height="90" fill="#D4B88B" rx="4"/>
  <text x="965" y="1690" text-anchor="middle" class="color-label">Deep Gold</text>
  <text x="965" y="1705" text-anchor="middle" class="color-hex">#D4B88B</text>
  
  <text x="1070" y="1580" class="color-label">Text:</text>
  <rect x="1070" y="1590" width="110" height="40" fill="#F8FAFC" rx="4"/>
  <text x="1125" y="1640" text-anchor="middle" class="color-label">Primary</text>
  <text x="1125" y="1655" text-anchor="middle" class="color-hex">#F8FAFC</text>
  
  <rect x="1200" y="1590" width="110" height="40" fill="#CBD5E1" rx="4"/>
  <text x="1255" y="1640" text-anchor="middle" class="color-label">Secondary</text>
  <text x="1255" y="1655" text-anchor="middle" class="color-hex">#CBD5E1</text>
  
  <rect x="1070" y="1640" width="110" height="40" fill="#94A3B8" rx="4"/>
  <text x="1125" y="1690" text-anchor="middle" class="color-label">Muted</text>
  <text x="1125" y="1705" text-anchor="middle" class="color-hex">#94A3B8</text>
  
  <rect x="1200" y="1640" width="110" height="40" fill="#64748B" rx="4"/>
  <text x="1255" y="1690" text-anchor="middle" class="color-label">Disabled</text>
  <text x="1255" y="1705" text-anchor="middle" class="color-hex">#64748B</text>
  
  <text x="100" y="1740" class="color-hex">✓ Professional and trustworthy  ✓ Elegant color combination  ✓ Good brand perception</text>
  <text x="100" y="1765" class="color-hex">⚠ Blue may feel corporate/formal rather than friendly repair shop</text>
  
  <!-- Option 6: Slate Gray &amp; Rose Gold -->
  <rect x="50" y="1820" width="1300" height="320" class="dark-card" rx="12"/>
  <text x="80" y="1860" class="section-title">Option 6: Slate Gray &amp; Rose Gold</text>
  <text x="80" y="1885" class="desc-text">Neutral slate with rose gold accents. Modern and elegant. Appeals to broader demographic.</text>
  
  <text x="100" y="1920" class="color-label">Backgrounds:</text>
  <rect x="100" y="1930" width="110" height="90" fill="#1E1E1E" rx="4"/>
  <text x="155" y="2030" text-anchor="middle" class="color-label">Base</text>
  <text x="155" y="2045" text-anchor="middle" class="color-hex">#1E1E1E</text>
  
  <rect x="230" y="1930" width="110" height="90" fill="#2A2A2A" rx="4"/>
  <text x="285" y="2030" text-anchor="middle" class="color-label">Surface</text>
  <text x="285" y="2045" text-anchor="middle" class="color-hex">#2A2A2A</text>
  
  <rect x="360" y="1930" width="110" height="90" fill="#373737" rx="4"/>
  <text x="415" y="2030" text-anchor="middle" class="color-label">Card</text>
  <text x="415" y="2045" text-anchor="middle" class="color-hex">#373737</text>
  
  <rect x="490" y="1930" width="110" height="90" fill="#444444" rx="4"/>
  <text x="545" y="2030" text-anchor="middle" class="color-label">Elevated</text>
  <text x="545" y="2045" text-anchor="middle" class="color-hex">#444444</text>
  
  <text x="650" y="1920" class="color-label">Rose Gold:</text>
  <rect x="650" y="1930" width="110" height="90" fill="#F5C7A6" rx="4"/>
  <text x="705" y="2030" text-anchor="middle" class="color-label">Rose Gold</text>
  <text x="705" y="2045" text-anchor="middle" class="color-hex">#F5C7A6</text>
  
  <rect x="780" y="1930" width="110" height="90" fill="#E6B88F" rx="4"/>
  <text x="835" y="2030" text-anchor="middle" class="color-label">Hover</text>
  <text x="835" y="2045" text-anchor="middle" class="color-hex">#E6B88F</text>
  
  <rect x="910" y="1930" width="110" height="90" fill="#D4A47A" rx="4"/>
  <text x="965" y="2030" text-anchor="middle" class="color-label">Active</text>
  <text x="965" y="2045" text-anchor="middle" class="color-hex">#D4A47A</text>
  
  <text x="1070" y="1920" class="color-label">Text:</text>
  <rect x="1070" y="1930" width="110" height="40" fill="#F5F5F5" rx="4"/>
  <text x="1125" y="1980" text-anchor="middle" class="color-label">Primary</text>
  <text x="1125" y="1995" text-anchor="middle" class="color-hex">#F5F5F5</text>
  
  <rect x="1200" y="1930" width="110" height="40" fill="#D4D4D4" rx="4"/>
  <text x="1255" y="1980" text-anchor="middle" class="color-label">Secondary</text>
  <text x="1255" y="1995" text-anchor="middle" class="color-hex">#D4D4D4</text>
  
  <rect x="1070" y="1980" width="110" height="40" fill="#A0A0A0" rx="4"/>
  <text x="1125" y="2030" text-anchor="middle" class="color-label">Muted</text>
  <text x="1125" y="2045" text-anchor="middle" class="color-hex">#A0A0A0</text>
  
  <rect x="1200" y="1980" width="110" height="40" fill="#737373" rx="4"/>
  <text x="1255" y="2030" text-anchor="middle" class="color-label">Disabled</text>
  <text x="1255" y="2045" text-anchor="middle" class="color-hex">#737373</text>
  
  <text x="100" y="2080" class="color-hex">✓ Elegant and modern  ✓ Appeals to wider audience  ✓ Softer than pure gold</text>
  <text x="100" y="2105" class="color-hex">⚠ Deviates from your established gold brand color</text>
  
  <!-- Supporting Colors Section -->
  <rect x="50" y="2160" width="1300" height="280" class="dark-card" rx="12"/>
  <text x="80" y="2200" class="section-title">Supporting Colors (Works with All Options)</text>
  <text x="80" y="2225" class="desc-text">Semantic colors for success, error, warning, and info states - optimized for dark backgrounds</text>
  
  <text x="100" y="2265" class="color-label">Success:</text>
  <rect x="100" y="2275" width="130" height="70" fill="#10B981" rx="4"/>
  <text x="165" y="2360" text-anchor="middle" class="color-label">Green</text>
  <text x="165" y="2375" text-anchor="middle" class="color-hex">#10B981</text>
  
  <rect x="250" y="2275" width="130" height="70" fill="#34D399" rx="4"/>
  <text x="315" y="2360" text-anchor="middle" class="color-label">Light</text>
  <text x="315" y="2375" text-anchor="middle" class="color-hex">#34D399</text>
  
  <text x="420" y="2265" class="color-label">Error:</text>
  <rect x="420" y="2275" width="130" height="70" fill="#EF4444" rx="4"/>
  <text x="485" y="2360" text-anchor="middle" class="color-label">Red</text>
  <text x="485" y="2375" text-anchor="middle" class="color-hex">#EF4444</text>
  
  <rect x="570" y="2275" width="130" height="70" fill="#F87171" rx="4"/>
  <text x="635" y="2360" text-anchor="middle" class="color-label">Light</text>
  <text x="635" y="2375" text-anchor="middle" class="color-hex">#F87171</text>
  
  <text x="740" y="2265" class="color-label">Warning:</text>
  <rect x="740" y="2275" width="130" height="70" fill="#F59E0B" rx="4"/>
  <text x="805" y="2360" text-anchor="middle" class="color-label">Orange</text>
  <text x="805" y="2375" text-anchor="middle" class="color-hex">#F59E0B</text>
  
  <rect x="890" y="2275" width="130" height="70" fill="#FBBF24" rx="4"/>
  <text x="955" y="2360" text-anchor="middle" class="color-label">Light</text>
  <text x="955" y="2375" text-anchor="middle" class="color-hex">#FBBF24</text>
  
  <text x="1060" y="2265" class="color-label">Info:</text>
  <rect x="1060" y="2275" width="130" height="70" fill="#3B82F6" rx="4"/>
  <text x="1125" y="2360" text-anchor="middle" class="color-label">Blue</text>
  <text x="1125" y="2375" text-anchor="middle" class="color-hex">#3B82F6</text>
  
  <rect x="1210" y="2275" width="130" height="70" fill="#60A5FA" rx="4"/>
  <text x="1275" y="2360" text-anchor="middle" class="color-label">Light</text>
  <text x="1275" y="2375" text-anchor="middle" class="color-hex">#60A5FA</text>
  
  <text x="100" y="2405" class="color-hex">These semantic colors provide consistent feedback across all dark mode options.</text>
  
  <!-- Implementation Guide -->
  <rect x="50" y="2460" width="1300" height="680" class="dark-card" rx="12"/>
  <text x="80" y="2500" class="section-title">Implementation Guide</text>
  
  <text x="100" y="2540" class="color-label" style="font-size: 16px;">CSS Implementation (Example with Option 2 - Recommended)</text>
  
  <rect x="100" y="2555" width="1200" height="450" fill="#0a0a0a" rx="6" stroke="#374151" stroke-width="1"/>
  
  <text x="130" y="2585" class="color-hex" fill="#10b981">@media</text>
  <text x="190" y="2585" class="color-hex" fill="#f9fafb;"> (prefers-color-scheme: dark) {</text>
  
  <text x="150" y="2610" class="color-hex" fill="#f9fafb;">  :root {</text>
  
  <text x="170" y="2635" class="color-hex" fill="#6b7280;">    /* Backgrounds */</text>
  <text x="170" y="2655" class="color-hex" fill="#d4af37;">    --dark:</text>
  <text x="280" y="2655" class="color-hex" fill="#e6c96f;"> #0F0F0F;</text>
  <text x="170" y="2675" class="color-hex" fill="#d4af37;">    --dark-surface:</text>
  <text x="280" y="2675" class="color-hex" fill="#e6c96f;"> #1A1A1A;</text>
  <text x="170" y="2695" class="color-hex" fill="#d4af37;">    --dark-card:</text>
  <text x="280" y="2695" class="color-hex" fill="#e6c96f;"> #252525;</text>
  <text x="170" y="2715" class="color-hex" fill="#d4af37;">    --dark-elevated:</text>
  <text x="280" y="2715" class="color-hex" fill="#e6c96f;"> #2F2F2F;</text>
  
  <text x="170" y="2745" class="color-hex" fill="#6b7280;">    /* Gold Accents */</text>
  <text x="170" y="2765" class="color-hex" fill="#d4af37;">    --primary:</text>
  <text x="280" y="2765" class="color-hex" fill="#e6c96f;"> #E6C96F;</text>
  <text x="400" y="2765" class="color-hex" fill="#6b7280;">/* Brightened for dark mode */</text>
  <text x="170" y="2785" class="color-hex" fill="#d4af37;">    --primary-hover:</text>
  <text x="280" y="2785" class="color-hex" fill="#e6c96f;"> #D4AF37;</text>
  <text x="170" y="2805" class="color-hex" fill="#d4af37;">    --primary-light:</text>
  <text x="280" y="2805" class="color-hex" fill="#e6c96f;"> rgba(230, 201, 111, 0.15);</text>
  
  <text x="170" y="2835" class="color-hex" fill="#6b7280;">    /* Text Colors */</text>
  <text x="170" y="2855" class="color-hex" fill="#d4af37;">    --white:</text>
  <text x="280" y="2855" class="color-hex" fill="#e6c96f;"> #F9FAFB;</text>
  <text x="400" y="2855" class="color-hex" fill="#6b7280;">/* Off-white for readability */</text>
  <text x="170" y="2875" class="color-hex" fill="#d4af37;">    --gray-800:</text>
  <text x="280" y="2875" class="color-hex" fill="#e6c96f;"> #E5E7EB;</text>
  <text x="400" y="2875" class="color-hex" fill="#6b7280;">/* Light gray for body text */</text>
  <text x="170" y="2895" class="color-hex" fill="#d4af37;">    --gray-600:</text>
  <text x="280" y="2895" class="color-hex" fill="#e6c96f;"> #A8A8A8;</text>
  <text x="400" y="2895" class="color-hex" fill="#6b7280;">/* Muted text */</text>
  <text x="170" y="2915" class="color-hex" fill="#d4af37;">    --gray-500:</text>
  <text x="280" y="2915" class="color-hex" fill="#e6c96f;"> #737373;</text>
  <text x="400" y="2915" class="color-hex" fill="#6b7280;">/* Disabled text */</text>
  
  <text x="170" y="2945" class="color-hex" fill="#6b7280;">    /* Borders &amp; Dividers */</text>
  <text x="170" y="2965" class="color-hex" fill="#d4af37;">    --gray-200:</text>
  <text x="280" y="2965" class="color-hex" fill="#e6c96f;"> #2F2F2F;</text>
  <text x="170" y="2985" class="color-hex" fill="#d4af37;">    --gray-300:</text>
  <text x="280" y="2985" class="color-hex" fill="#e6c96f;"> #3A3A3A;</text>
  
  <text x="150" y="3015" class="color-hex" fill="#f9fafb;">  }</text>
  <text x="130" y="3035" class="color-hex" fill="#f9fafb;">}</text>
  
  <!-- Final Recommendations -->
  <text x="100" y="3080" class="section-title" style="font-size: 18px; fill: #10b981;">Final Recommendations:</text>
  <text x="100" y="3110" class="color-hex" style="font-size: 14px;">1. Start with Option 2 (Soft Dark &amp; Warm Gold) - best balance for your repair business</text>
  <text x="100" y="3135" class="color-hex" style="font-size: 14px;">2. Test on multiple devices (phones, tablets, desktops) in different lighting conditions</text>
  <text x="100" y="3160" class="color-hex" style="font-size: 14px;">3. Consider offering a manual toggle so users can switch between light/dark modes</text>
  <text x="100" y="3185" class="color-hex" style="font-size: 14px;">4. Use the prefers-color-scheme media query to auto-detect user preference</text>
  
  <!-- Footer -->
  <text x="700" y="3180" text-anchor="middle" class="color-hex" style="font-size: 11px;">
    Tech Device Repair - Dark Mode Palette Options - October 2025
  </text>
</svg>


