<?xml version="1.0" encoding="UTF-8" standalone="no"?>
<!DOCTYPE svg PUBLIC "-//W3C//DTD SVG 1.1//EN" "http://www.w3.org/Graphics/SVG/1.1/DTD/svg11.dtd">
<svg xmlns="http://www.w3.org/2000/svg" version="1.1" viewBox="0.00 0.00 432.00 453.00">
<g stroke-width="2.00" fill="none" stroke-linecap="butt" display="none">
<path stroke="#9ca3af" vector-effect="non-scaling-stroke" d="
  M 410.46 393.54
  L 410.49 54.79"
/>
<path stroke="#374151" vector-effect="non-scaling-stroke" d="
  M 410.49 54.79
  Q 410.80 55.01 410.87 55.48
  A 0.20 0.20 0.0 0 0 411.04 55.65
  Q 411.47 55.71 411.82 55.16
  A 0.99 0.97 -29.5 0 0 411.97 54.64
  L 411.97 17.19
  A 2.07 2.07 0.0 0 0 409.90 15.12
  L 26.09 15.12
  A 0.88 0.88 0.0 0 0 25.21 16.00
  L 25.21 434.61
  A 1.27 1.26 0.0 0 0 26.48 435.87
  L 410.47 435.87
  A 0.97 0.96 -87.7 0 0 411.43 434.98
  Q 411.97 428.42 411.94 419.18
  Q 411.91 408.80 411.64 393.86
  A 0.52 0.52 0.0 0 0 410.95 393.38
  L 410.46 393.54"
/>
<path stroke="#6b7280" vector-effect="non-scaling-stroke" d="
  M 410.49 54.79
  L 410.54 16.62
  A 0.53 0.52 -90.0 0 0 410.02 16.09
  L 26.86 16.09
  A 0.77 0.76 90.0 0 0 26.10 16.86
  L 26.10 434.35
  A 0.73 0.72 90.0 0 0 26.82 435.08
  L 409.85 435.08
  A 0.65 0.65 0.0 0 0 410.50 434.43
  L 410.46 393.54"
/>
<path stroke="#E6A84D" vector-effect="non-scaling-stroke" d="
  M 104.12 143.62
  L 104.12 163.01
  A 1.00 0.99 -0.0 0 0 105.12 164.00
  L 131.84 164.00
  A 0.61 0.60 90.0 0 1 132.44 164.61
  L 132.44 170.89
  A 1.39 1.38 0.0 0 0 133.83 172.27
  L 152.99 172.27
  A 0.76 0.75 0.0 0 0 153.75 171.52
  L 153.75 164.80
  A 0.71 0.71 0.0 0 1 154.45 164.09
  Q 175.84 163.82 211.89 163.74
  Q 225.53 163.71 231.03 165.42
  C 249.99 171.29 261.23 188.70 261.00 208.11
  C 260.80 224.46 252.43 239.62 239.28 249.12
  C 236.86 250.87 235.62 252.05 237.50 254.75
  Q 240.66 259.30 244.30 265.73
  A 1.84 1.83 61.0 0 0 246.78 266.44
  C 271.67 252.90 283.69 226.88 281.26 199.02
  Q 279.09 174.26 261.26 158.56
  Q 246.10 145.20 228.03 143.90
  Q 216.78 143.09 204.25 143.06
  Q 154.01 142.95 104.74 143.00
  A 0.62 0.62 0.0 0 0 104.12 143.62"
/>
<path stroke="#6b7280" vector-effect="non-scaling-stroke" d="
  M 155.8615 184.5413
  A 7.37 7.37 0.0 0 0 148.4787 177.1842
  L 118.8587 177.2359
  A 7.37 7.37 0.0 0 0 111.5016 184.6188
  L 111.5985 240.1187
  A 7.37 7.37 0.0 0 0 118.9813 247.4758
  L 148.6013 247.4241
  A 7.37 7.37 0.0 0 0 155.9584 240.0412
  L 155.8615 184.5413"
/>
<path stroke="#6b7280" vector-effect="non-scaling-stroke" d="
  M 186.45 193.91
  Q 196.36 193.40 203.99 193.72
  C 212.58 194.08 220.62 196.99 225.29 204.64
  C 230.12 212.54 229.72 224.80 224.29 232.80
  Q 223.42 234.09 221.57 236.65
  A 1.04 1.04 0.0 0 0 221.53 237.81
  L 229.15 249.69
  A 1.08 1.08 0.0 0 0 230.71 249.97
  C 245.81 238.63 251.47 217.80 244.87 200.11
  C 238.49 183.00 223.98 177.63 206.74 177.34
  Q 195.71 177.16 168.22 177.27
  Q 167.54 177.27 167.27 177.25
  Q 165.34 177.08 165.25 179.26
  C 165.14 182.00 165.51 184.39 165.50 186.93
  Q 165.30 245.42 165.30 282.34
  A 1.74 1.73 -90.0 0 0 167.03 284.08
  L 184.09 284.08
  A 1.79 1.78 -90.0 0 0 185.87 282.29
  L 185.87 194.52
  A 0.61 0.61 0.0 0 1 186.45 193.91"
/>
<path stroke="#6b7280" vector-effect="non-scaling-stroke" d="
  M 251.52 276.63
  L 257.24 285.56
  A 0.44 0.44 0.0 0 0 257.61 285.76
  L 319.98 285.76
  A 1.26 1.26 0.0 0 0 321.24 284.50
  Q 321.23 253.35 321.19 219.51
  C 321.18 208.05 313.29 199.01 301.47 198.78
  Q 295.02 198.65 287.61 198.80
  A 0.38 0.38 0.0 0 0 287.24 199.18
  L 287.24 212.20
  A 0.85 0.85 0.0 0 0 288.15 213.05
  C 294.47 212.60 305.79 211.98 305.84 221.25
  Q 305.97 246.36 305.91 275.35
  A 1.14 1.14 0.0 0 1 304.77 276.48
  L 251.60 276.48
  A 0.10 0.10 0.0 0 0 251.52 276.63"
/>
<path stroke="#6b7280" vector-effect="non-scaling-stroke" d="
  M 199.96 241.09
  A 0.32 0.32 0.0 0 0 199.69 241.58
  L 240.09 307.83
  A 0.32 0.32 0.0 0 0 240.36 307.98
  L 259.69 307.98
  A 0.32 0.32 0.0 0 0 259.96 307.49
  L 217.49 241.24
  A 0.32 0.32 0.0 0 0 217.23 241.09
  L 199.96 241.09"
/>
<path stroke="#E6A84D" vector-effect="non-scaling-stroke" d="
  M 132.26 254.54
  L 132.26 306.85
  A 1.37 1.37 0.0 0 0 133.63 308.22
  L 183.59 308.22
  A 1.65 1.64 90.0 0 0 185.23 306.57
  L 185.23 290.84
  A 1.04 1.04 0.0 0 0 184.19 289.80
  L 154.91 289.80
  A 1.42 1.42 0.0 0 1 153.49 288.38
  L 153.49 253.71
  A 0.59 0.57 -3.1 0 0 152.84 253.14
  Q 143.98 254.21 133.20 253.65
  A 0.89 0.89 0.0 0 0 132.26 254.54"
/>
<path stroke="#6b7280" vector-effect="non-scaling-stroke" d="
  M 262.15 292.75
  A 0.26 0.26 0.0 0 0 261.93 293.16
  L 270.71 306.87
  A 2.40 2.39 -16.2 0 0 272.70 307.96
  Q 291.04 308.06 317.26 307.96
  Q 331.23 307.91 332.55 293.70
  A 0.87 0.87 0.0 0 0 331.68 292.75
  L 262.15 292.75"
/>
<path stroke="#6b7280" vector-effect="non-scaling-stroke" d="
  M 150.8324 185.0199
  A 3.08 3.08 0.0 0 0 147.7470 181.9453
  L 119.3871 181.9948
  A 3.08 3.08 0.0 0 0 116.3124 185.0802
  L 116.4076 239.6001
  A 3.08 3.08 0.0 0 0 119.4930 242.6747
  L 147.8529 242.6252
  A 3.08 3.08 0.0 0 0 150.9276 239.5398
  L 150.8324 185.0199"
/>
<path stroke="#6b7280" vector-effect="non-scaling-stroke" d="
  M 139.2292 188.6218
  A 1.42 1.42 0.0 0 0 137.7944 187.2167
  L 129.5148 187.3034
  A 1.42 1.42 0.0 0 0 128.1098 188.7382
  L 128.1108 188.8382
  A 1.42 1.42 0.0 0 0 129.5456 190.2433
  L 137.8252 190.1566
  A 1.42 1.42 0.0 0 0 139.2302 188.7218
  L 139.2292 188.6218"
/>
</g>
<path fill="transparent" d="
  M 432.00 0.00
  L 432.00 453.00
  L 0.00 453.00
  L 0.00 0.00
  L 432.00 0.00
  Z
  M 410.46 393.54
  L 410.49 54.79
  Q 410.80 55.01 410.87 55.48
  A 0.20 0.20 0.0 0 0 411.04 55.65
  Q 411.47 55.71 411.82 55.16
  A 0.99 0.97 -29.5 0 0 411.97 54.64
  L 411.97 17.19
  A 2.07 2.07 0.0 0 0 409.90 15.12
  L 26.09 15.12
  A 0.88 0.88 0.0 0 0 25.21 16.00
  L 25.21 434.61
  A 1.27 1.26 0.0 0 0 26.48 435.87
  L 410.47 435.87
  A 0.97 0.96 -87.7 0 0 411.43 434.98
  Q 411.97 428.42 411.94 419.18
  Q 411.91 408.80 411.64 393.86
  A 0.52 0.52 0.0 0 0 410.95 393.38
  L 410.46 393.54
  Z"
/>
<path fill="#111827" d="
  M 410.49 54.79
  L 410.54 16.62
  A 0.53 0.52 -90.0 0 0 410.02 16.09
  L 26.86 16.09
  A 0.77 0.76 90.0 0 0 26.10 16.86
  L 26.10 434.35
  A 0.73 0.72 90.0 0 0 26.82 435.08
  L 409.85 435.08
  A 0.65 0.65 0.0 0 0 410.50 434.43
  L 410.46 393.54
  L 410.95 393.38
  A 0.52 0.52 0.0 0 1 411.64 393.86
  Q 411.91 408.80 411.94 419.18
  Q 411.97 428.42 411.43 434.98
  A 0.97 0.96 -87.7 0 1 410.47 435.87
  L 26.48 435.87
  A 1.27 1.26 -0.0 0 1 25.21 434.61
  L 25.21 16.00
  A 0.88 0.88 0.0 0 1 26.09 15.12
  L 409.90 15.12
  A 2.07 2.07 0.0 0 1 411.97 17.19
  L 411.97 54.64
  A 0.99 0.97 -29.5 0 1 411.82 55.16
  Q 411.47 55.71 411.04 55.65
  A 0.20 0.20 0.0 0 1 410.87 55.48
  Q 410.80 55.01 410.49 54.79
  Z"
/>
<path fill="#ffffff" d="
  M 410.49 54.79
  L 410.46 393.54
  L 410.50 434.43
  A 0.65 0.65 0.0 0 1 409.85 435.08
  L 26.82 435.08
  A 0.73 0.72 90.0 0 1 26.10 434.35
  L 26.10 16.86
  A 0.77 0.76 -90.0 0 1 26.86 16.09
  L 410.02 16.09
  A 0.53 0.52 90.0 0 1 410.54 16.62
  L 410.49 54.79
  Z
  M 104.12 143.62
  L 104.12 163.01
  A 1.00 0.99 -0.0 0 0 105.12 164.00
  L 131.84 164.00
  A 0.61 0.60 90.0 0 1 132.44 164.61
  L 132.44 170.89
  A 1.39 1.38 0.0 0 0 133.83 172.27
  L 152.99 172.27
  A 0.76 0.75 0.0 0 0 153.75 171.52
  L 153.75 164.80
  A 0.71 0.71 0.0 0 1 154.45 164.09
  Q 175.84 163.82 211.89 163.74
  Q 225.53 163.71 231.03 165.42
  C 249.99 171.29 261.23 188.70 261.00 208.11
  C 260.80 224.46 252.43 239.62 239.28 249.12
  C 236.86 250.87 235.62 252.05 237.50 254.75
  Q 240.66 259.30 244.30 265.73
  A 1.84 1.83 61.0 0 0 246.78 266.44
  C 271.67 252.90 283.69 226.88 281.26 199.02
  Q 279.09 174.26 261.26 158.56
  Q 246.10 145.20 228.03 143.90
  Q 216.78 143.09 204.25 143.06
  Q 154.01 142.95 104.74 143.00
  A 0.62 0.62 0.0 0 0 104.12 143.62
  Z
  M 155.8615 184.5413
  A 7.37 7.37 0.0 0 0 148.4787 177.1842
  L 118.8587 177.2359
  A 7.37 7.37 0.0 0 0 111.5016 184.6188
  L 111.5985 240.1187
  A 7.37 7.37 0.0 0 0 118.9813 247.4758
  L 148.6013 247.4241
  A 7.37 7.37 0.0 0 0 155.9584 240.0412
  L 155.8615 184.5413
  Z
  M 186.45 193.91
  Q 196.36 193.40 203.99 193.72
  C 212.58 194.08 220.62 196.99 225.29 204.64
  C 230.12 212.54 229.72 224.80 224.29 232.80
  Q 223.42 234.09 221.57 236.65
  A 1.04 1.04 0.0 0 0 221.53 237.81
  L 229.15 249.69
  A 1.08 1.08 0.0 0 0 230.71 249.97
  C 245.81 238.63 251.47 217.80 244.87 200.11
  C 238.49 183.00 223.98 177.63 206.74 177.34
  Q 195.71 177.16 168.22 177.27
  Q 167.54 177.27 167.27 177.25
  Q 165.34 177.08 165.25 179.26
  C 165.14 182.00 165.51 184.39 165.50 186.93
  Q 165.30 245.42 165.30 282.34
  A 1.74 1.73 -90.0 0 0 167.03 284.08
  L 184.09 284.08
  A 1.79 1.78 -90.0 0 0 185.87 282.29
  L 185.87 194.52
  A 0.61 0.61 0.0 0 1 186.45 193.91
  Z
  M 251.52 276.63
  L 257.24 285.56
  A 0.44 0.44 0.0 0 0 257.61 285.76
  L 319.98 285.76
  A 1.26 1.26 0.0 0 0 321.24 284.50
  Q 321.23 253.35 321.19 219.51
  C 321.18 208.05 313.29 199.01 301.47 198.78
  Q 295.02 198.65 287.61 198.80
  A 0.38 0.38 0.0 0 0 287.24 199.18
  L 287.24 212.20
  A 0.85 0.85 0.0 0 0 288.15 213.05
  C 294.47 212.60 305.79 211.98 305.84 221.25
  Q 305.97 246.36 305.91 275.35
  A 1.14 1.14 0.0 0 1 304.77 276.48
  L 251.60 276.48
  A 0.10 0.10 0.0 0 0 251.52 276.63
  Z
  M 199.96 241.09
  A 0.32 0.32 0.0 0 0 199.69 241.58
  L 240.09 307.83
  A 0.32 0.32 0.0 0 0 240.36 307.98
  L 259.69 307.98
  A 0.32 0.32 0.0 0 0 259.96 307.49
  L 217.49 241.24
  A 0.32 0.32 0.0 0 0 217.23 241.09
  L 199.96 241.09
  Z
  M 132.26 254.54
  L 132.26 306.85
  A 1.37 1.37 0.0 0 0 133.63 308.22
  L 183.59 308.22
  A 1.65 1.64 90.0 0 0 185.23 306.57
  L 185.23 290.84
  A 1.04 1.04 0.0 0 0 184.19 289.80
  L 154.91 289.80
  A 1.42 1.42 0.0 0 1 153.49 288.38
  L 153.49 253.71
  A 0.59 0.57 -3.1 0 0 152.84 253.14
  Q 143.98 254.21 133.20 253.65
  A 0.89 0.89 0.0 0 0 132.26 254.54
  Z
  M 262.15 292.75
  A 0.26 0.26 0.0 0 0 261.93 293.16
  L 270.71 306.87
  A 2.40 2.39 -16.2 0 0 272.70 307.96
  Q 291.04 308.06 317.26 307.96
  Q 331.23 307.91 332.55 293.70
  A 0.87 0.87 0.0 0 0 331.68 292.75
  L 262.15 292.75
  Z"
/>
<path fill="#D4AF37" d="
  M 104.12 143.62
  A 0.62 0.62 0.0 0 1 104.74 143.00
  Q 154.01 142.95 204.25 143.06
  Q 216.78 143.09 228.03 143.90
  Q 246.10 145.20 261.26 158.56
  Q 279.09 174.26 281.26 199.02
  C 283.69 226.88 271.67 252.90 246.78 266.44
  A 1.84 1.83 61.0 0 1 244.30 265.73
  Q 240.66 259.30 237.50 254.75
  C 235.62 252.05 236.86 250.87 239.28 249.12
  C 252.43 239.62 260.80 224.46 261.00 208.11
  C 261.23 188.70 249.99 171.29 231.03 165.42
  Q 225.53 163.71 211.89 163.74
  Q 175.84 163.82 154.45 164.09
  A 0.71 0.71 0.0 0 0 153.75 164.80
  L 153.75 171.52
  A 0.76 0.75 -0.0 0 1 152.99 172.27
  L 133.83 172.27
  A 1.39 1.38 -0.0 0 1 132.44 170.89
  L 132.44 164.61
  A 0.61 0.60 -90.0 0 0 131.84 164.00
  L 105.12 164.00
  A 1.00 0.99 0.0 0 1 104.12 163.01
  L 104.12 143.62
  Z"
/>
<path fill="#111827" d="
  M 155.9584 240.0412
  A 7.37 7.37 0.0 0 1 148.6013 247.4241
  L 118.9813 247.4758
  A 7.37 7.37 0.0 0 1 111.5985 240.1187
  L 111.5016 184.6188
  A 7.37 7.37 0.0 0 1 118.8587 177.2359
  L 148.4787 177.1842
  A 7.37 7.37 0.0 0 1 155.8615 184.5413
  L 155.9584 240.0412
  Z
  M 150.8324 185.0199
  A 3.08 3.08 0.0 0 0 147.7470 181.9453
  L 119.3871 181.9948
  A 3.08 3.08 0.0 0 0 116.3124 185.0802
  L 116.4076 239.6001
  A 3.08 3.08 0.0 0 0 119.4930 242.6747
  L 147.8529 242.6252
  A 3.08 3.08 0.0 0 0 150.9276 239.5398
  L 150.8324 185.0199
  Z"
/>
<path fill="#111827" d="
  M 186.45 193.91
  A 0.61 0.61 0.0 0 0 185.87 194.52
  L 185.87 282.29
  A 1.79 1.78 -90.0 0 1 184.09 284.08
  L 167.03 284.08
  A 1.74 1.73 90.0 0 1 165.30 282.34
  Q 165.30 245.42 165.50 186.93
  C 165.51 184.39 165.14 182.00 165.25 179.26
  Q 165.34 177.08 167.27 177.25
  Q 167.54 177.27 168.22 177.27
  Q 195.71 177.16 206.74 177.34
  C 223.98 177.63 238.49 183.00 244.87 200.11
  C 251.47 217.80 245.81 238.63 230.71 249.97
  A 1.08 1.08 0.0 0 1 229.15 249.69
  L 221.53 237.81
  A 1.04 1.04 0.0 0 1 221.57 236.65
  Q 223.42 234.09 224.29 232.80
  C 229.72 224.80 230.12 212.54 225.29 204.64
  C 220.62 196.99 212.58 194.08 203.99 193.72
  Q 196.36 193.40 186.45 193.91
  Z"
/>
<path fill="#ffffff" d="
  M 150.9276 239.5398
  A 3.08 3.08 0.0 0 1 147.8529 242.6252
  L 119.4930 242.6747
  A 3.08 3.08 0.0 0 1 116.4076 239.6001
  L 116.3124 185.0802
  A 3.08 3.08 0.0 0 1 119.3871 181.9948
  L 147.7470 181.9453
  A 3.08 3.08 0.0 0 1 150.8324 185.0199
  L 150.9276 239.5398
  Z
  M 139.2292 188.6218
  A 1.42 1.42 0.0 0 0 137.7944 187.2167
  L 129.5148 187.3034
  A 1.42 1.42 0.0 0 0 128.1098 188.7382
  L 128.1108 188.8382
  A 1.42 1.42 0.0 0 0 129.5456 190.2433
  L 137.8252 190.1566
  A 1.42 1.42 0.0 0 0 139.2302 188.7218
  L 139.2292 188.6218
  Z"
/>
<rect fill="#111827" x="-5.56" y="-1.47" transform="translate(133.67,188.73) rotate(-0.6)" width="11.12" height="2.94" rx="1.42"/>
<path fill="#111827" d="
  M 251.52 276.63
  A 0.10 0.10 0.0 0 1 251.60 276.48
  L 304.77 276.48
  A 1.14 1.14 0.0 0 0 305.91 275.35
  Q 305.97 246.36 305.84 221.25
  C 305.79 211.98 294.47 212.60 288.15 213.05
  A 0.85 0.85 0.0 0 1 287.24 212.20
  L 287.24 199.18
  A 0.38 0.38 0.0 0 1 287.61 198.80
  Q 295.02 198.65 301.47 198.78
  C 313.29 199.01 321.18 208.05 321.19 219.51
  Q 321.23 253.35 321.24 284.50
  A 1.26 1.26 0.0 0 1 319.98 285.76
  L 257.61 285.76
  A 0.44 0.44 0.0 0 1 257.24 285.56
  L 251.52 276.63
  Z"
/>
<path fill="#111827" d="
  M 199.96 241.09
  L 217.23 241.09
  A 0.32 0.32 0.0 0 1 217.49 241.24
  L 259.96 307.49
  A 0.32 0.32 0.0 0 1 259.69 307.98
  L 240.36 307.98
  A 0.32 0.32 0.0 0 1 240.09 307.83
  L 199.69 241.58
  A 0.32 0.32 0.0 0 1 199.96 241.09
  Z"
/>
<path fill="#D4AF37" d="
  M 132.26 254.54
  A 0.89 0.89 0.0 0 1 133.20 253.65
  Q 143.98 254.21 152.84 253.14
  A 0.59 0.57 -3.1 0 1 153.49 253.71
  L 153.49 288.38
  A 1.42 1.42 0.0 0 0 154.91 289.80
  L 184.19 289.80
  A 1.04 1.04 0.0 0 1 185.23 290.84
  L 185.23 306.57
  A 1.65 1.64 -90.0 0 1 183.59 308.22
  L 133.63 308.22
  A 1.37 1.37 0.0 0 1 132.26 306.85
  L 132.26 254.54
  Z"
/>
<path fill="#111827" d="
  M 262.15 292.75
  L 331.68 292.75
  A 0.87 0.87 0.0 0 1 332.55 293.70
  Q 331.23 307.91 317.26 307.96
  Q 291.04 308.06 272.70 307.96
  A 2.40 2.39 -16.2 0 1 270.71 306.87
  L 261.93 293.16
  A 0.26 0.26 0.0 0 1 262.15 292.75
  Z"
/>
</svg>
